<svg xmlns="http://www.w3.org/2000/svg" xmlns:xlink="http://www.w3.org/1999/xlink" viewBox="0 0 1006.14 273.03"><defs><style>.cls-1{fill:#fff;}.cls-2{fill:url(#linear-gradient);}.cls-3{fill:url(#linear-gradient-2);}</style><linearGradient id="linear-gradient" y1="170.23" x2="201.48" y2="170.23" gradientUnits="userSpaceOnUse"><stop offset="0" stop-color="#50a7fe"/><stop offset="1" stop-color="#9950ff"/></linearGradient><linearGradient id="linear-gradient-2" x1="258.59" y1="39.64" x2="158.8" y2="39.64" xlink:href="#linear-gradient"/></defs><g id="Layer_2" data-name="Layer 2"><g id="Capa_1" data-name="Capa 1"><path class="cls-1" d="M303.19,214.75A41.44,41.44,0,0,1,290.53,223,42.86,42.86,0,0,1,273,226.5a30.54,30.54,0,0,1-12-2.22,25,25,0,0,1-8.81-6.08,27.14,27.14,0,0,1-5.47-9,31.18,31.18,0,0,1-1.93-11q0-13.77,8.62-20.77t24.41-8.2q5.86-.4,12.46-.61t11.65-.4v-3.25q0-16.2-18-16.2a57.06,57.06,0,0,0-13.68,1.62,54.1,54.1,0,0,0-12,4.45l-5.88-22.48a69.16,69.16,0,0,1,16.72-6.59,82.08,82.08,0,0,1,21-2.53q20.87,0,32.62,10.84t11.75,32.52v57.94h-31.2Zm-17.62-9.52a31.26,31.26,0,0,0,8.81-1.21,33.1,33.1,0,0,0,7.6-3.25V186c-3.24.27-6.15.57-8.71.91s-5.07.64-7.5.91q-9.93,1.22-9.93,9.32a7.4,7.4,0,0,0,2.54,5.87Q280.9,205.24,285.57,205.23Z"/><path class="cls-1" d="M420.86,192.06a33.55,33.55,0,0,1-3.14,14.79,29.37,29.37,0,0,1-8.91,10.84,40.86,40.86,0,0,1-13.68,6.59,64.27,64.27,0,0,1-17.42,2.22,101.56,101.56,0,0,1-17-1.51,66.44,66.44,0,0,1-15.21-4.56l3.46-22.49a63.83,63.83,0,0,0,13.88,3.95,78.73,78.73,0,0,0,13.27,1.32,27.74,27.74,0,0,0,10.23-1.73c2.9-1.14,4.35-3.07,4.35-5.77q0-3.65-3.84-5.17t-11.55-4.35a102.92,102.92,0,0,1-11.75-5,38.46,38.46,0,0,1-9.42-6.48,27.51,27.51,0,0,1-6.18-8.61,26.92,26.92,0,0,1-2.23-11.35q0-16.2,10.94-23.9t28.56-7.7a78.52,78.52,0,0,1,17,1.72A53.18,53.18,0,0,1,417,130.68L412.56,152A70.41,70.41,0,0,0,401,148a52.13,52.13,0,0,0-12.77-1.52,28.27,28.27,0,0,0-9,1.11,4.41,4.41,0,0,0-3.14,4.56q0,3.45,3.75,5t9.62,3.75q4.46,1.63,9.93,3.95a47.79,47.79,0,0,1,10.23,6,33.35,33.35,0,0,1,8,8.81A23,23,0,0,1,420.86,192.06Z"/><path class="cls-1" d="M522.15,125.21v99.27H491v-13q-5.67,8.52-12.77,11.75a35.65,35.65,0,0,1-15,3.24q-9.93,0-16.71-4.15a32.2,32.2,0,0,1-10.94-11,49.62,49.62,0,0,1-6-15.9,95.12,95.12,0,0,1-1.82-18.95V125.21h32.41v51.86q0,12.36,3.45,18.13T474.94,201a16.9,16.9,0,0,0,8.82-2.23,18.89,18.89,0,0,0,6-5.47V125.21Z"/><path class="cls-1" d="M598.74,153.16h-3.85c-20.83,0-21.88,3.25-27.15,9.73v61.59H535.33V125.21h31.4v16.61a27.36,27.36,0,0,1,8.71-12.77q5.88-4.65,15.4-4.66a31.47,31.47,0,0,1,4.76.31,30.59,30.59,0,0,1,3.95.91Z"/><path class="cls-1" d="M653,123.18q19.44,0,30.79,11.45t11.35,31.7a79.88,79.88,0,0,1-1.83,16.41H635.73q.4,9.12,6.18,14.69T659.63,203a94,94,0,0,0,15.3-1.31,56.81,56.81,0,0,0,13.88-3.95l4.05,20.86a71.54,71.54,0,0,1-17.32,5.88,96.73,96.73,0,0,1-20,2,64.74,64.74,0,0,1-22.89-3.74,46.2,46.2,0,0,1-16.62-10.44,43.85,43.85,0,0,1-10.13-16,59.36,59.36,0,0,1-3.44-20.67,63.44,63.44,0,0,1,3.55-21.88,45.83,45.83,0,0,1,10.13-16.51,44.31,44.31,0,0,1,15.9-10.43A56.67,56.67,0,0,1,653,123.18Zm-1,20.66q-7.7,0-11.85,5t-4.15,13.67H664.7a14.1,14.1,0,0,0,.4-3.44,17,17,0,0,0-3.44-10.84Q658.21,143.85,651.93,143.84Z"/><path class="cls-1" d="M699.86,125.21h15.19V99.27h32.42v25.94H776v24.71H747.47v38.75q0,5.85,2.53,9.18t9.22,3.33a54.76,54.76,0,0,0,7.39-.51,47.1,47.1,0,0,0,7.2-1.52L776,221.81a48.24,48.24,0,0,1-11.95,3.47,82.8,82.8,0,0,1-14.18,1.22,39.61,39.61,0,0,1-16.11-2.93,29.3,29.3,0,0,1-10.74-7.9A31.48,31.48,0,0,1,717,203.91a52.56,52.56,0,0,1-1.93-14.48V149.92H699.86Z"/><path class="cls-1" d="M784.08,96.23a18,18,0,0,1,5.07-13,19.09,19.09,0,0,1,26.34,0,19.14,19.14,0,0,1,0,25.93,19.09,19.09,0,0,1-26.34,0A18,18,0,0,1,784.08,96.23Zm2,128.25V125.21h32.42v99.27Z"/><path class="cls-1" d="M964.75,125.21l-18,70.7-18.24-70.7H875.4v-4.3q0-9.41,4.36-13.09t12-3.69a37.72,37.72,0,0,1,10.54,1.42l2.43-22.92a40.07,40.07,0,0,0-9.62-2.51,74.24,74.24,0,0,0-10-.7q-19.05,0-30.59,10.43T843,122.37v2.84h-15.4v24.71H843v74.56H875.4V149.92h28.17l27.14,77-13,39.3h32.61l47-141Z"/><path class="cls-2" d="M11.52,80.34S88.37,52.27,190.5,79c0,0,11.64,2.85,10.76,17.78,0,0,9.72,130-100.63,176.3C100.63,273-.23,239,0,96.41,0,96.41,0,84.2,11.52,80.34Z"/><path class="cls-1" d="M141.69,144.93c-1.46,2.71-4.76,8.75-6.62,11.32l-2.35,2.56c-2.35,2.56,0,1.07,0,1.07.18-.25-2.7,3.72-2.35,4.27.34,3-9.33,11.54-5.77,9-3.3,4.23-3.65,7.59-5.77,12.61-3.07,3.13-5.59,7.18-7.9,10-1.74,4.21-3.12,4.16-2.14,9.83.43,3.2,0,0-1.06,1.07-1.66,1.74-1.24.45-1.29,2.09-5.65-5.16-11.94,3.72-16.87-3.37-2.72-2.21,1.68,1.83-4.7.64-2.05.32-4.66-2.78-6-3.21-2.82-.52-3.31-2.12-6.62-4.06-1.5-1.7,0-1.28,0-1.28.43.3-2.79-3.26-2.35-1.49.69-2.22,1.81-8.22.21-10.9-2.38-2.28-.6,1.39-3.2-6-2.14-5.34.21-1.28,0-3.84s0,0-1.92-2.35c-1.92-4.13-3-4-4.7-9.19-1.28-3.31-.24-3.89-2.35-6.4-.8-1.3-2.7-1.82-3-3.21-.86-1.52-2.59-5-3.85-4.39-.55-1.48.48-4-.64-6.07-.95-1.62-1.61-2.58-3.84-3-2.13-1.14,2.27-2.52-2.35-5.13-.48-2.74-3.12-4.35-.29-7.05a23.83,23.83,0,0,1,11.18.43c.19,1.4,3,2.5,4.84,3.7a5.06,5.06,0,0,0,4.7,1.41c.66-2.38-2.78-4.3-2.28-6.18-2.62-10,6.84-4.22,9.19.43,1.91,2.06,11.27,6.35,11.75,9,3.8,2.91,11,22.39,14,14.75a10.6,10.6,0,0,1,2.41-3.82c2.41-2.35,3.2-4.55,5.79-9,9.52-16.09,26.41-32.81,39.09-49.34,24.38-27,9.2-25.1,47.84-12.18a141.61,141.61,0,0,0-13.24,16.24c-4.09,8.5-10,13.66-16,21.36-5.3,4.74-2.8,5.13-6.19,9.61-1.29,1.79-3.3,2.4-1.5,3.42-3.46,1.75-4.4,7.12-7.69,9.18"/><path class="cls-3" d="M166.12,64.4S229.74.11,258.59,0V2.24H255.4L254.12,5l-6,1.71s-.43-.43-1.28.64,1.92-.43-.86,1.07-4.27,2.35-4.27,2.35l-3.42,3-3,2.13-.64,2.35s.64,0-.43,1.28-.21.22-1.07,1.29a26.63,26.63,0,0,0-2.13,3.84l-.64,3.42L228.49,30l-.86,3.21-3,1.7s-.43,1.93-1.92,1.93S221,37.91,221,38.77s.43.85,0,2.13a23.62,23.62,0,0,1-1.71,3.42,19.69,19.69,0,0,0-.85,3l-.22,1.28a2.29,2.29,0,0,1-.85,1.07c-.64.43-2.14.64-2.35,1.28s-.64,2.35-.64,2.35l.21,1.5-2.25,1.92L191,79.28,158.8,72.45Z"/><path class="cls-1" d="M995.75,227.86a10.39,10.39,0,1,1,10.39-10.39A10.4,10.4,0,0,1,995.75,227.86Zm0-19.48a9.09,9.09,0,1,0,9.09,9.09,9.1,9.1,0,0,0-9.09-9.09Z"/><path class="cls-1" d="M998.35,222.67a4.26,4.26,0,0,0-2.6-3.93l-1.29-.56v4.49h-1.3v-9.74a.65.65,0,0,1,.65-.65h2.92a2.92,2.92,0,0,1,.51,5.8,5.56,5.56,0,0,1,2.41,4.59Zm-3.89-5.85h2.27a1.62,1.62,0,1,0,0-3.24h-2.27Z"/></g></g></svg>