<svg width="45" height="45" viewBox="0 0 45 45" fill="none" xmlns="http://www.w3.org/2000/svg">
<path fill-rule="evenodd" clip-rule="evenodd" d="M0 1.83333C0 0.820813 0.820811 0 1.83333 0H43.1667C44.1792 0 45 0.820811 45 1.83333V5.16334H0V1.83333ZM0 6.08001H45V26.54C45 27.5525 44.1792 28.3734 43.1667 28.3734H1.83333C0.820811 28.3734 0 27.5525 0 26.54V6.08001ZM2.98295 3.88463C3.50072 3.88463 3.92045 3.46876 3.92045 2.95575C3.92045 2.44273 3.50072 2.02686 2.98295 2.02686C2.46519 2.02686 2.04545 2.44273 2.04545 2.95575C2.04545 3.46876 2.46519 3.88463 2.98295 3.88463ZM7.67058 2.95575C7.67058 3.46876 7.25085 3.88463 6.73308 3.88463C6.21531 3.88463 5.79558 3.46876 5.79558 2.95575C5.79558 2.44273 6.21531 2.02686 6.73308 2.02686C7.25085 2.02686 7.67058 2.44273 7.67058 2.95575ZM10.4832 3.88463C11.0009 3.88463 11.4207 3.46876 11.4207 2.95575C11.4207 2.44273 11.0009 2.02686 10.4832 2.02686C9.9654 2.02686 9.54567 2.44273 9.54567 2.95575C9.54567 3.46876 9.9654 3.88463 10.4832 3.88463Z" fill="white"/>
<path fill-rule="evenodd" clip-rule="evenodd" d="M9.98853 29.966C9.9713 30.1027 10.0686 30.228 10.2058 30.2457C10.343 30.2635 10.4682 30.1671 10.4854 30.0304C10.7743 27.7377 11.7175 25.5736 13.2049 23.7925C14.5676 22.1606 16.3352 20.9125 18.3298 20.1679C18.3289 20.176 18.3275 20.184 18.3255 20.1919L17.8703 22.0863C17.8275 22.2644 18.0276 22.4015 18.1788 22.2976L21.7686 19.8304C21.9038 19.7375 21.8752 19.5305 21.7198 19.4771L17.6011 18.0613C17.4276 18.0016 17.272 18.1866 17.361 18.3467L18.1195 19.7127C16.0576 20.4888 14.2302 21.7828 12.8194 23.4721C11.2714 25.3258 10.2894 27.5786 9.98853 29.966ZM35.2956 33.1016C35.313 32.9649 35.2159 32.8396 35.0787 32.8217C34.9415 32.8037 34.8162 32.9 34.7988 33.0367C34.5075 35.3267 33.5634 37.4876 32.0766 39.266C30.7144 40.8954 28.9485 42.1416 26.956 42.8853C26.9569 42.8774 26.9583 42.8695 26.9602 42.8617L27.4155 40.9674C27.4583 40.7893 27.2581 40.6522 27.1069 40.7561L23.5172 43.2232C23.3819 43.3162 23.4105 43.5232 23.5659 43.5766L27.6846 44.9924C27.8581 45.052 28.0137 44.8671 27.9248 44.707L27.1661 43.3407C29.2258 42.5654 31.0517 41.2734 32.4619 39.5866C34.0093 37.7357 34.9923 35.4862 35.2956 33.1016ZM24.0109 19.214C24.0282 19.0773 24.1534 18.9809 24.2906 18.9986C26.6859 19.3089 28.9432 20.2864 30.8 21.8175C32.4913 23.2122 33.787 25.0141 34.5659 27.0454L35.9466 26.2928C36.1075 26.2051 36.2924 26.3615 36.2319 26.5342L34.8026 30.6161C34.7488 30.7698 34.543 30.7978 34.4494 30.6642L31.9589 27.1067C31.8536 26.9563 31.9899 26.7559 32.1689 26.7981L34.0838 27.2499C34.0927 27.252 34.1016 27.2535 34.1106 27.2543C33.3641 25.2906 32.1151 23.5485 30.4818 22.2016C28.6984 20.731 26.53 19.7918 24.2282 19.4937C24.091 19.4759 23.9937 19.3507 24.0109 19.214ZM21.8644 44.1377C22.0025 44.1462 22.1208 44.0415 22.1286 43.9039C22.1365 43.7663 22.0309 43.6479 21.8929 43.6395C19.5662 43.4974 17.3292 42.7012 15.4438 41.3448C13.5585 39.9885 12.1027 38.1282 11.2467 35.982C11.2127 35.8967 11.1369 35.8402 11.0522 35.8268L11.0603 35.8224C11.1037 35.7987 11.1543 35.7919 11.2024 35.8033L13.1173 36.2551C13.2962 36.2973 13.4325 36.0969 13.3272 35.9465L10.8367 32.389C10.7432 32.2554 10.5373 32.2834 10.4835 32.4371L9.05422 36.519C8.99376 36.6917 9.17863 36.8481 9.3395 36.7604L10.7845 35.9727C10.7588 36.0315 10.7557 36.1002 10.7814 36.1647C11.673 38.3999 13.189 40.3371 15.1519 41.7492C17.1148 43.1613 19.4433 43.9899 21.8644 44.1377ZM24.2383 23.6245H21.0479V25.4037C20.4624 25.5531 19.9094 25.7827 19.4015 26.08L18.1311 24.8212L15.8752 27.0564L17.1457 28.3153C16.8457 28.8184 16.614 29.3662 16.4634 29.9463H14.6672V33.1073H16.4634C16.6141 33.6872 16.8457 34.235 17.1457 34.738L15.8754 35.9966L18.1313 38.2318L19.4015 36.9733C19.9093 37.2706 20.4624 37.5002 21.0479 37.6496V39.4292H24.2383V37.6495C24.8236 37.5003 25.3764 37.2708 25.8841 36.9736L27.1549 38.2327L29.4108 35.9975L28.1401 34.7385C28.4402 34.2354 28.672 33.6875 28.8227 33.1073H30.6188V29.9463H28.8228C28.6721 29.3662 28.4404 28.8183 28.1404 28.3152L29.4107 27.0565L27.1548 24.8213L25.8845 26.0799C25.3767 25.7826 24.8238 25.5531 24.2383 25.4037V23.6245ZM22.6431 34.6877C20.8811 34.6877 19.4527 33.2724 19.4527 31.5266C19.4527 29.7809 20.8811 28.3656 22.6431 28.3656C24.405 28.3656 25.8334 29.7809 25.8334 31.5266C25.8334 33.2724 24.405 34.6877 22.6431 34.6877Z" fill="#B756FE"/>
</svg>
