<svg width="45" height="45" viewBox="0 0 45 45" fill="none" xmlns="http://www.w3.org/2000/svg">
<path fill-rule="evenodd" clip-rule="evenodd" d="M43.3647 14.5831C44.4242 16.1081 45.0001 17.9906 45 19.9292C45.0007 22.2221 44.1932 24.4217 42.7595 26.0451C41.3259 27.6686 39.3805 28.5832 37.3505 28.5882H33.1699C33.0983 28.4413 33.0234 28.2963 32.9454 28.1534L35.0183 26.0075L30.6758 21.5117L28.4606 23.8051C28.0241 23.5878 27.5705 23.4016 27.1023 23.2494V20.1176H20.9659V23.2494C20.4989 23.4013 20.0463 23.5869 19.6108 23.8035L17.3946 21.5091L13.0555 26.0013L15.127 28.1459C15.0475 28.2912 14.9713 28.4387 14.8984 28.5882H8.51291C7.39461 28.5878 6.28733 28.3386 5.2543 27.8549C4.22126 27.3711 3.2827 26.6623 2.49221 25.7688C1.70171 24.8754 1.07476 23.8148 0.647145 22.6477C0.219531 21.4806 -0.000368464 20.2298 0 18.9667C-0.000146727 17.5585 0.27347 16.1675 0.801524 14.8918C1.32958 13.6162 2.09919 12.487 3.05598 11.5842C4.01278 10.6813 5.13343 10.0268 6.33876 9.66681C7.5441 9.30682 8.80471 9.25016 10.0316 9.50083C9.85259 8.05301 10.1017 6.57894 10.7403 5.30739C11.3788 4.03583 12.3711 3.03789 13.5632 2.46842C14.7552 1.89895 16.0803 1.78979 17.3329 2.1579C18.5855 2.526 19.6955 3.35078 20.4906 4.50424C21.4679 3.09993 22.715 1.96478 24.1376 1.1845C25.5602 0.404213 27.1211 -0.00081374 28.7026 0C31.4306 0.00150244 34.0501 1.20648 36.0029 3.35807C37.9556 5.50965 39.0871 8.43765 39.156 11.5179C40.8231 11.9787 42.3051 13.058 43.3647 14.5831ZM26.2659 28.5882H21.8024C22.4768 28.249 23.234 28.0588 24.0342 28.0588C24.8343 28.0588 25.5915 28.249 26.2659 28.5882Z" fill="#F6F6F7"/>
<path fill-rule="evenodd" clip-rule="evenodd" d="M21.6817 20.647H26.3862V23.3893C27.2496 23.6193 28.0649 23.973 28.8137 24.4311L30.6872 22.4915L34.0138 25.9355L32.1403 27.8751C32.5828 28.6502 32.9244 29.4944 33.1466 30.3882H35.7953V35.2588H33.1467C32.9245 36.1526 32.5828 36.9968 32.1404 37.772L34.0138 39.7116L30.6872 43.1556L28.8138 41.216C28.065 41.6741 27.2497 42.0278 26.3863 42.2579V45H21.6818V42.2579C20.8184 42.0278 20.003 41.6741 19.2542 41.216L17.3807 43.1556L14.0541 39.7115L15.9276 37.7719C15.4852 36.9967 15.1435 36.1526 14.9213 35.2588H12.2727L12.2727 30.3882H14.9214C15.1436 29.4944 15.4852 28.6503 15.9276 27.8752L14.0541 25.9355L17.3807 22.4915L19.2542 24.4311C20.003 23.9731 20.8184 23.6194 21.6817 23.3893V20.647ZM19.3295 32.8236C19.3295 35.5135 21.4358 37.6942 24.034 37.6942C26.6323 37.6942 28.7385 35.5135 28.7385 32.8236C28.7385 30.1336 26.6323 27.953 24.034 27.953C21.4358 27.953 19.3295 30.1336 19.3295 32.8236Z" fill="#32CAFD"/>
</svg>
