<svg width="49" height="45" viewBox="0 0 49 45" fill="none" xmlns="http://www.w3.org/2000/svg">
<mask id="path-1-inside-1_1523_556" fill="white">
<path fill-rule="evenodd" clip-rule="evenodd" d="M11 7C9.89543 7 9 7.89543 9 9V35C9 36.1046 9.89543 37 11 37H37C38.1046 37 39 36.1046 39 35V9C39 7.89543 38.1046 7 37 7H11ZM14.75 11.75H33.25C33.8023 11.75 34.25 12.1977 34.25 12.75V31.25C34.25 31.8023 33.8023 32.25 33.25 32.25H14.75C14.1977 32.25 13.75 31.8023 13.75 31.25V12.75C13.75 12.1977 14.1977 11.75 14.75 11.75ZM12.75 12.75C12.75 11.6454 13.6454 10.75 14.75 10.75H33.25C34.3546 10.75 35.25 11.6454 35.25 12.75V31.25C35.25 32.3546 34.3546 33.25 33.25 33.25H14.75C13.6454 33.25 12.75 32.3546 12.75 31.25V12.75Z"/>
</mask>
<path fill-rule="evenodd" clip-rule="evenodd" d="M11 7C9.89543 7 9 7.89543 9 9V35C9 36.1046 9.89543 37 11 37H37C38.1046 37 39 36.1046 39 35V9C39 7.89543 38.1046 7 37 7H11ZM14.75 11.75H33.25C33.8023 11.75 34.25 12.1977 34.25 12.75V31.25C34.25 31.8023 33.8023 32.25 33.25 32.25H14.75C14.1977 32.25 13.75 31.8023 13.75 31.25V12.75C13.75 12.1977 14.1977 11.75 14.75 11.75ZM12.75 12.75C12.75 11.6454 13.6454 10.75 14.75 10.75H33.25C34.3546 10.75 35.25 11.6454 35.25 12.75V31.25C35.25 32.3546 34.3546 33.25 33.25 33.25H14.75C13.6454 33.25 12.75 32.3546 12.75 31.25V12.75Z" fill="white"/>
<path d="M10 9C10 8.44772 10.4477 8 11 8V6C9.34315 6 8 7.34315 8 9H10ZM10 35V9H8V35H10ZM11 36C10.4477 36 10 35.5523 10 35H8C8 36.6569 9.34315 38 11 38V36ZM37 36H11V38H37V36ZM38 35C38 35.5523 37.5523 36 37 36V38C38.6569 38 40 36.6569 40 35H38ZM38 9V35H40V9H38ZM37 8C37.5523 8 38 8.44772 38 9H40C40 7.34315 38.6569 6 37 6V8ZM11 8H37V6H11V8ZM33.25 10.75H14.75V12.75H33.25V10.75ZM35.25 12.75C35.25 11.6454 34.3546 10.75 33.25 10.75V12.75H35.25ZM35.25 31.25V12.75H33.25V31.25H35.25ZM33.25 33.25C34.3546 33.25 35.25 32.3546 35.25 31.25H33.25V33.25ZM14.75 33.25H33.25V31.25H14.75V33.25ZM12.75 31.25C12.75 32.3546 13.6454 33.25 14.75 33.25V31.25H12.75ZM12.75 12.75V31.25H14.75V12.75H12.75ZM14.75 10.75C13.6454 10.75 12.75 11.6454 12.75 12.75H14.75V10.75ZM14.75 9.75C13.0931 9.75 11.75 11.0931 11.75 12.75H13.75C13.75 12.1977 14.1977 11.75 14.75 11.75V9.75ZM33.25 9.75H14.75V11.75H33.25V9.75ZM36.25 12.75C36.25 11.0931 34.9069 9.75 33.25 9.75V11.75C33.8023 11.75 34.25 12.1977 34.25 12.75H36.25ZM36.25 31.25V12.75H34.25V31.25H36.25ZM33.25 34.25C34.9069 34.25 36.25 32.9069 36.25 31.25H34.25C34.25 31.8023 33.8023 32.25 33.25 32.25V34.25ZM14.75 34.25H33.25V32.25H14.75V34.25ZM11.75 31.25C11.75 32.9069 13.0931 34.25 14.75 34.25V32.25C14.1977 32.25 13.75 31.8023 13.75 31.25H11.75ZM11.75 12.75V31.25H13.75V12.75H11.75Z" fill="white" mask="url(#path-1-inside-1_1523_556)"/>
<path fill-rule="evenodd" clip-rule="evenodd" d="M22.3412 13.8047H25.6104V15.6278C26.2104 15.7808 26.7771 16.0161 27.2974 16.3207L28.5993 15.0309L30.9109 17.3213L29.609 18.6112C29.9165 19.1268 30.1539 19.6882 30.3083 20.2827H32.1486V23.5218H30.3082C30.1537 24.1164 29.9162 24.6779 29.6086 25.1935L30.9109 26.4838L28.5992 28.7742L27.2967 27.4837C26.7765 27.7882 26.2101 28.0233 25.6104 28.1762V30.0001H22.3412V28.1762C21.7411 28.0232 21.1744 27.7879 20.654 27.4831L19.3523 28.7729L17.0407 26.4824L18.3425 25.1926C18.0352 24.6772 17.7979 24.116 17.6435 23.5218H15.803V20.2827H17.6434C17.7978 19.6883 18.0352 19.1269 18.3426 18.6113L17.0406 17.3213L19.3523 15.0309L20.6541 16.3208C21.1745 16.0161 21.7412 15.7808 22.3412 15.6278V13.8047ZM20.7067 21.902C20.7067 23.6909 22.1703 25.1412 23.9759 25.1412C25.7814 25.1412 27.245 23.6909 27.245 21.902C27.245 20.1131 25.7814 18.6628 23.9759 18.6628C22.1703 18.6628 20.7067 20.1131 20.7067 21.902Z" fill="#2D55FB"/>
<path d="M12.5 0.150391L12.5 2.59642C12.5 2.95891 12.5985 3.31458 12.785 3.62541L13.715 5.17537C13.9015 5.4862 14 5.84187 14 6.20436L14 8.15039" stroke="white"/>
<path d="M18 0.150391L18 2.59642C18 2.95891 18.0985 3.31458 18.285 3.62541L19.215 5.17537C19.4015 5.4862 19.5 5.84187 19.5 6.20436L19.5 8.15039" stroke="white"/>
<path d="M35 0.150391L35 2.59642C35 2.95891 34.9015 3.31458 34.715 3.62541L33.785 5.17537C33.5985 5.4862 33.5 5.84187 33.5 6.20436L33.5 8.15039" stroke="white"/>
<path d="M30.5 0.150391L30.5 2.59642C30.5 2.95891 30.4015 3.31458 30.215 3.62541L29.285 5.17537C29.0985 5.4862 29 5.84187 29 6.20436L29 8.15039" stroke="white"/>
<path d="M24 0.150391L24 8.15039" stroke="white"/>
<path d="M12.5 44L12.5 41.554C12.5 41.1915 12.5985 40.8358 12.785 40.525L13.715 38.975C13.9015 38.6642 14 38.3085 14 37.946L14 36" stroke="white"/>
<path d="M18 44L18 41.554C18 41.1915 18.0985 40.8358 18.285 40.525L19.215 38.975C19.4015 38.6642 19.5 38.3085 19.5 37.946L19.5 36" stroke="white"/>
<path d="M35 44L35 41.554C35 41.1915 34.9015 40.8358 34.715 40.525L33.785 38.975C33.5985 38.6642 33.5 38.3085 33.5 37.946L33.5 36" stroke="white"/>
<path d="M30.5 44L30.5 41.554C30.5 41.1915 30.4015 40.8358 30.215 40.525L29.285 38.975C29.0985 38.6642 29 38.3085 29 37.946L29 36" stroke="white"/>
<path d="M24 44L24 36" stroke="white"/>
<path d="M2 10.75L4.44603 10.75C4.80852 10.75 5.16419 10.8485 5.47502 11.035L7.02498 11.965C7.33581 12.1515 7.69148 12.25 8.05397 12.25L10 12.25" stroke="white"/>
<path d="M2 16.25L4.44603 16.25C4.80852 16.25 5.16419 16.3485 5.47502 16.535L7.02498 17.465C7.33581 17.6515 7.69148 17.75 8.05397 17.75L10 17.75" stroke="white"/>
<path d="M2 33.25L4.44603 33.25C4.80852 33.25 5.16419 33.1515 5.47502 32.965L7.02498 32.035C7.33581 31.8485 7.69148 31.75 8.05397 31.75L10 31.75" stroke="white"/>
<path d="M2 28.75L4.44603 28.75C4.80852 28.75 5.16419 28.6515 5.47502 28.465L7.02498 27.535C7.33581 27.3485 7.69148 27.25 8.05397 27.25L10 27.25" stroke="white"/>
<path d="M2 22.25L10 22.25" stroke="white"/>
<path d="M46 10.75L43.554 10.75C43.1915 10.75 42.8358 10.8485 42.525 11.035L40.975 11.965C40.6642 12.1515 40.3085 12.25 39.946 12.25L38 12.25" stroke="white"/>
<path d="M46 16.25L43.554 16.25C43.1915 16.25 42.8358 16.3485 42.525 16.535L40.975 17.465C40.6642 17.6515 40.3085 17.75 39.946 17.75L38 17.75" stroke="white"/>
<path d="M46 33.25L43.554 33.25C43.1915 33.25 42.8358 33.1515 42.525 32.965L40.975 32.035C40.6642 31.8485 40.3085 31.75 39.946 31.75L38 31.75" stroke="white"/>
<path d="M46 28.75L43.554 28.75C43.1915 28.75 42.8358 28.6515 42.525 28.465L40.975 27.535C40.6642 27.3485 40.3085 27.25 39.946 27.25L38 27.25" stroke="white"/>
<path d="M46 22.25L38 22.25" stroke="white"/>
</svg>
