<svg width="46" height="45" viewBox="0 0 46 45" fill="none" xmlns="http://www.w3.org/2000/svg">
<path d="M23.8968 0.57888C23.8968 0.57888 23.898 0.579905 23.9015 0.583387L23.8992 0.581154L23.9252 0.60438C23.9613 0.63625 24.0328 0.697286 24.1436 0.783474C24.365 0.955788 24.7449 1.22938 25.316 1.57201C26.4576 2.257 28.3682 3.22069 31.3104 4.20149C34.3204 5.20481 36.2852 5.69234 37.4649 5.92831C38.054 6.04613 38.4432 6.10038 38.6656 6.12508C38.7766 6.13741 38.8452 6.14231 38.8757 6.14409L38.8895 6.14485C40.0051 6.16304 40.9036 7.07294 40.9036 8.19275V22.5301C40.9036 29.5889 36.2303 35.2294 32.0115 38.9209C29.859 40.8042 27.7164 42.2762 26.1158 43.2766C25.3133 43.7782 24.6417 44.1644 24.1661 44.4278C23.761 44.6521 23.3747 44.8016 22.956 44.927C22.639 45.022 22.3002 45.0253 21.983 44.9309C21.5639 44.8063 21.1786 44.6519 20.7739 44.4278C20.2983 44.1644 19.6267 43.7782 18.8242 43.2766C17.2237 42.2762 15.0809 40.8042 12.9286 38.9209C8.70981 35.2294 4.03638 29.5889 4.03638 22.5301V8.19275C4.03638 7.07296 4.93502 6.16306 6.05046 6.14485L6.0643 6.14409C6.09478 6.14231 6.16341 6.13741 6.2744 6.12508C6.49677 6.10038 6.88595 6.04613 7.47503 5.92831C8.6549 5.69234 10.6196 5.20481 13.6296 4.20149C16.5719 3.22069 18.4824 2.257 19.6241 1.57201C20.1951 1.22938 20.575 0.955788 20.7964 0.783474C20.9072 0.697286 20.9787 0.63625 21.015 0.60438L21.0408 0.581154C21.8357 -0.193718 23.1043 -0.193718 23.8992 0.581154L23.8968 0.57888Z" fill="white"/>
<path d="M4.59091 23.5225C4.59091 25.4212 5.34517 27.2421 6.68776 28.5847C8.03035 29.9273 9.85129 30.6816 11.75 30.6816C14.2127 30.6816 15.8818 29.7938 17.2727 28.405C18.543 27.1306 19.5657 25.4595 20.658 23.5225C19.5657 21.5854 18.543 19.9143 17.2707 18.64C15.8818 17.2491 14.2127 16.3634 11.75 16.3634C9.85129 16.3634 8.03035 17.1176 6.68776 18.4602C5.34517 19.8028 4.59091 21.6238 4.59091 23.5225ZM11.75 34.7725C8.76631 34.7725 5.90483 33.5872 3.79505 31.4774C1.68526 29.3676 0.5 26.5061 0.5 23.5225C0.5 20.5388 1.68526 17.6773 3.79505 15.5675C5.90483 13.4577 8.76631 12.2725 11.75 12.2725C15.4236 12.2725 18.1011 13.6859 20.163 15.7497C21.2593 16.842 22.1818 18.1266 23 19.4356C23.8182 18.1266 24.7407 16.842 25.837 15.7477C27.8989 13.6859 30.5743 12.2725 34.25 12.2725C37.2337 12.2725 40.0952 13.4577 42.205 15.5675C44.3147 17.6773 45.5 20.5388 45.5 23.5225C45.5 26.5061 44.3147 29.3676 42.205 31.4774C40.0952 33.5872 37.2337 34.7725 34.25 34.7725C30.5764 34.7725 27.8989 33.3591 25.837 31.2952C24.7407 30.2029 23.8182 28.9184 23 27.6093C22.1818 28.9184 21.2593 30.2029 20.163 31.2972C18.1011 33.3591 15.4257 34.7725 11.75 34.7725ZM25.342 23.5225C26.4343 25.4595 27.457 27.1306 28.7293 28.405C30.1202 29.7959 31.7893 30.6816 34.25 30.6816C35.1901 30.6816 36.1211 30.4964 36.9897 30.1366C37.8582 29.7768 38.6475 29.2495 39.3122 28.5847C39.977 27.9199 40.5044 27.1307 40.8641 26.2621C41.2239 25.3935 41.4091 24.4626 41.4091 23.5225C41.4091 22.5823 41.2239 21.6514 40.8641 20.7828C40.5044 19.9142 39.977 19.125 39.3122 18.4602C38.6475 17.7954 37.8582 17.2681 36.9897 16.9083C36.1211 16.5485 35.1901 16.3634 34.25 16.3634C31.7893 16.3634 30.1182 17.2511 28.7273 18.64C27.457 19.9143 26.4343 21.5854 25.342 23.5225Z" fill="#FFC933"/>
</svg>
