<svg width="46" height="46" viewBox="0 0 46 46" fill="none" xmlns="http://www.w3.org/2000/svg">
<g clip-path="url(#clip0_195_334)">
<path d="M14.7471 0.779907H31.2002C32.0264 0.85022 32.8262 1.21936 33.3799 1.83459C33.9512 2.44983 34.2676 3.28479 34.2588 4.12854C34.2588 6.76526 34.2588 9.40198 34.2588 12.0387C34.2588 12.5133 34.2588 13.0055 34.1094 13.4625C33.7315 14.7721 32.4658 15.7565 31.0947 15.7916C29.7061 15.8004 28.3174 15.7916 26.9287 15.7916C25.9619 16.8815 25.0127 17.9801 24.0459 19.0699C23.5098 19.7115 22.4287 19.694 21.919 19.0348C21.1016 17.9625 20.293 16.8727 19.4844 15.7916C17.9639 15.7828 16.4346 15.8004 14.9053 15.7828C13.543 15.7477 12.2774 14.7721 11.8906 13.4625C11.75 13.0319 11.7412 12.5748 11.75 12.1266C11.75 9.42834 11.75 6.73889 11.75 4.04065C11.75 3.14417 12.1455 2.26526 12.8047 1.65881C13.3321 1.15784 14.0264 0.867798 14.7471 0.779907Z" fill="#F6F6F7"/>
<path d="M0.693359 4.83167C1.12402 3.6012 2.35449 2.68713 3.66406 2.66077C5.4834 2.65198 7.30273 2.66077 9.11328 2.65198C8.99902 3.13538 8.92871 3.62756 8.9375 4.11975C8.9375 6.95862 8.92871 9.80627 8.94629 12.6451C8.97266 14.693 10.1416 16.6354 11.8643 17.7164C10.915 18.8063 9.96582 19.8961 9.00781 20.9772C8.48047 21.5924 7.43457 21.5309 6.93359 20.9069C6.10742 19.8346 5.29883 18.736 4.47266 17.6549C3.75195 17.6813 2.99609 17.6637 2.33691 17.3121C1.31738 16.8199 0.623047 15.7828 0.5 14.6578V5.66663C0.543945 5.38538 0.59668 5.10413 0.693359 4.83167Z" fill="#FFC933"/>
<path d="M36.8779 2.65198C38.6709 2.65198 40.4551 2.65198 42.248 2.65198C43.2412 2.65198 44.208 3.14417 44.8057 3.93518C45.21 4.45374 45.4385 5.09534 45.4912 5.74573V14.6315C45.3682 15.9059 44.4893 17.066 43.2676 17.4703C42.6963 17.6813 42.0811 17.6461 41.4834 17.6549C40.71 18.7096 39.9189 19.7467 39.1367 20.8014C38.7852 21.3024 38.0908 21.5397 37.5107 21.3199C37.1328 21.2057 36.8955 20.8717 36.6494 20.5905C35.8057 19.6324 34.9619 18.6656 34.1182 17.7076C35.4893 16.8463 36.5176 15.4489 36.8779 13.8668C37.0801 13.0582 37.0361 12.2233 37.0361 11.4059C37.0361 8.9801 37.0361 6.54553 37.0361 4.11975C37.0625 3.62756 37.001 3.13538 36.8779 2.65198Z" fill="#FFC933"/>
<path d="M22.5869 22.3571C23.7031 22.278 24.8369 22.5328 25.8037 23.0953C27.1397 23.8688 28.1328 25.2047 28.4756 26.7076C28.7305 27.8063 28.6426 28.9752 28.2295 30.0211C27.6494 31.5153 26.3926 32.7369 24.8721 33.2731C23.9053 33.6158 22.8418 33.6862 21.8398 33.4752C20.3193 33.1588 18.9482 32.1744 18.1572 30.8385C17.5596 29.8365 17.2871 28.65 17.3926 27.4899C17.4981 26.1715 18.0869 24.9059 19.0361 23.983C19.9766 23.0338 21.2598 22.4449 22.5869 22.3571Z" fill="#F6F6F7"/>
<path d="M7.64549 25.1696C8.73534 25.0641 9.86034 25.4596 10.6338 26.233C11.4072 26.9889 11.8203 28.0875 11.7412 29.1686C11.6797 30.153 11.1963 31.0934 10.458 31.735C9.6494 32.4469 8.51561 32.7721 7.45213 32.6051C6.36229 32.4557 5.36034 31.7789 4.79784 30.8385C4.23534 29.9245 4.1035 28.7555 4.44628 27.736C4.87694 26.3473 6.1953 25.2926 7.64549 25.1696Z" fill="#F6F6F7"/>
<path d="M37.625 25.1783C38.6358 25.0816 39.6729 25.3981 40.4375 26.066C41.2549 26.7604 41.7471 27.8326 41.7471 28.9137C41.7559 30.0387 41.2197 31.1461 40.3408 31.8404C39.5059 32.5172 38.3721 32.7984 37.3174 32.5963C36.2539 32.4029 35.2871 31.7262 34.751 30.7857C34.2149 29.8629 34.1006 28.7115 34.4522 27.7096C34.9004 26.3385 36.1924 25.3014 37.625 25.1783Z" fill="#F6F6F7"/>
<path d="M2.57422 35.5583C3.46191 34.8903 4.57812 34.5211 5.68555 34.5299C7.24121 34.5299 8.78809 34.5299 10.3438 34.5299C11.2754 34.5299 12.207 34.7936 13.0068 35.277C12.1191 35.9626 11.3633 36.8239 10.8271 37.817C10.124 39.1003 9.8252 40.5768 9.87793 42.027C7.22363 42.027 4.56934 42.027 1.90625 42.027C1.21191 42.0358 0.59668 41.4645 0.5 40.7878V39.4079C0.587891 37.9049 1.35254 36.4547 2.57422 35.5583Z" fill="#F6F6F7"/>
<path d="M32.9932 35.277C33.793 34.7936 34.7246 34.5299 35.6562 34.5299C37.2119 34.5299 38.7588 34.5299 40.3057 34.5299C41.668 34.5211 43.0303 35.0748 43.9883 36.0416C44.8848 36.9293 45.4209 38.1598 45.5 39.4078V40.7701C45.4297 41.2272 45.1572 41.649 44.7441 41.8688C44.3926 42.0797 43.9619 42.027 43.5664 42.0357C41.0879 42.0357 38.6094 42.0357 36.1309 42.0357C36.1396 41.2887 36.1045 40.5416 35.9287 39.8121C35.5244 38.0104 34.4609 36.3844 32.9932 35.277Z" fill="#F6F6F7"/>
<path d="M16.25 36.6569C17.1816 36.3229 18.1748 36.4108 19.1416 36.402C22.1299 36.402 25.1182 36.402 28.1064 36.402C29.1875 36.3932 30.2686 36.7272 31.1475 37.36C32.167 38.0807 32.9053 39.1881 33.1777 40.4098C33.3623 41.1569 33.3008 41.9303 33.3096 42.6949C33.3008 43.2838 33.3184 43.8639 33.3008 44.4528C33.2832 45.1207 32.7207 45.6832 32.0703 45.7711H13.9473C13.2617 45.6832 12.6729 45.068 12.6904 44.3649C12.6904 43.3365 12.6816 42.317 12.6992 41.2887C12.7783 39.2145 14.2637 37.2809 16.25 36.6569Z" fill="#F6F6F7"/>
</g>
<defs>
<clipPath id="clip0_195_334">
<rect width="45" height="45" fill="white" transform="translate(0.5 0.779907)"/>
</clipPath>
</defs>
</svg>
