<svg width="46" height="46" viewBox="0 0 46 46" fill="none" xmlns="http://www.w3.org/2000/svg">
<g clip-path="url(#clip0_195_411)">
<path d="M37.5547 0.779907H45.5V14.0162C42.8545 14.0074 40.209 14.025 37.5547 14.0074C37.5635 9.60413 37.5547 5.19202 37.5547 0.779907Z" fill="#32CAFD"/>
<path d="M3.83105 7.62659C5.75586 5.79846 8.38379 4.75256 11.0381 4.75256C18.9922 4.75256 26.9551 4.75256 34.9092 4.75256C34.9092 6.51917 34.9092 8.27698 34.9092 10.0436C27.1924 10.0436 19.4756 10.0436 11.75 10.0436C11.3457 10.0436 10.9326 10.0348 10.5283 10.0699C9.3418 10.2018 8.19922 10.7379 7.35547 11.5905C6.35352 12.5748 5.78223 13.9723 5.79102 15.3698C5.79102 16.7672 6.37988 18.1471 7.39062 19.1227C8.35742 20.0719 9.69336 20.6256 11.0469 20.6344C12.8223 20.6344 14.6064 20.6344 16.3818 20.6344C16.3818 22.401 16.3818 24.1588 16.3818 25.9254C14.6328 25.9342 12.8838 25.9254 11.1348 25.9254C9.93066 25.9254 8.72656 25.7321 7.58398 25.3278C5.07031 24.4576 2.92578 22.5944 1.69531 20.2301C0.992188 18.903 0.614258 17.4176 0.5 15.9235V15.0446C0.570312 12.2584 1.79199 9.52502 3.83105 7.62659Z" fill="#F6F6F7"/>
<path d="M19.0273 16.6617C21.6729 16.6617 24.3184 16.6617 26.9639 16.6617C26.9639 21.0739 26.9639 25.486 26.9639 29.8981C24.3184 29.8981 21.6729 29.8981 19.0273 29.8981C19.0273 25.486 19.0273 21.0739 19.0273 16.6617Z" fill="#32CAFD"/>
<path d="M29.6182 20.6344C31.3672 20.6256 33.1162 20.6344 34.8564 20.6344C36.1133 20.6344 37.3701 20.8453 38.5479 21.276C41.0703 22.1901 43.1973 24.1061 44.3838 26.5055C45.0518 27.8326 45.4121 29.3092 45.4912 30.7946V31.6823C45.3945 33.4489 44.8936 35.1891 43.9619 36.7008C42.4238 39.2936 39.6992 41.1656 36.7109 41.649C35.6387 41.8512 34.54 41.7985 33.4502 41.8073C25.9971 41.8073 18.5352 41.8073 11.082 41.8073C11.082 40.0406 11.082 38.2828 11.082 36.5162C18.623 36.5162 26.1641 36.5162 33.7139 36.5162C34.6016 36.5074 35.5068 36.5778 36.377 36.3053C38.0732 35.8307 39.4619 34.4508 39.9717 32.7633C40.4287 31.3043 40.2002 29.6432 39.3652 28.36C38.6006 27.1559 37.335 26.2946 35.9287 26.0221C35.3223 25.8903 34.6895 25.9254 34.0742 25.9254C32.5889 25.9254 31.1035 25.9254 29.6182 25.9254C29.6182 24.1588 29.6182 22.401 29.6182 20.6344Z" fill="#F6F6F7"/>
<path d="M0.5 32.5436C3.14551 32.5436 5.79102 32.5436 8.44531 32.5524C8.44531 36.9645 8.44531 41.3766 8.44531 45.7799H0.5V32.5436Z" fill="#32CAFD"/>
</g>
<defs>
<clipPath id="clip0_195_411">
<rect width="45" height="45" fill="white" transform="translate(0.5 0.779907)"/>
</clipPath>
</defs>
</svg>
