<svg width="54" height="46" viewBox="0 0 54 46" fill="none" xmlns="http://www.w3.org/2000/svg">
<path d="M25.854 2.86014C27.4782 2.63351 29.1684 2.88847 30.6415 3.60612C32.6056 4.54096 34.1731 6.269 34.9097 8.31809C35.8445 10.8488 35.4385 13.8421 33.8426 16.0234C32.4262 18.0536 30.0561 19.3851 27.582 19.5267C25.1175 19.7156 22.6057 18.7146 20.9248 16.9111C19.8295 15.759 19.0741 14.286 18.7908 12.7184C18.3942 10.6977 18.7908 8.53528 19.8767 6.78835C21.1609 4.67316 23.4083 3.1812 25.854 2.86014Z" fill="white"/>
<path d="M11.4632 10.6505C12.8702 10.4616 14.3433 10.7732 15.5614 11.5192C16.7229 12.2274 17.6388 13.3228 18.1393 14.5976C18.6681 15.9479 18.7059 17.4777 18.2432 18.8469C17.6105 20.7826 15.9675 22.3501 14.0033 22.9073C12.5208 23.3322 10.8778 23.1811 9.49912 22.4918C8.14879 21.8214 7.06287 20.6504 6.4963 19.2623C5.94862 17.9498 5.87307 16.4389 6.28856 15.0792C6.94956 12.7468 9.06475 10.9338 11.4632 10.6505Z" fill="#B756FE"/>
<path d="M41.0097 10.641C42.3695 10.4805 43.7859 10.7638 44.9663 11.472C46.1561 12.1802 47.1098 13.2944 47.6103 14.5881C48.1863 16.0517 48.1863 17.7326 47.5914 19.1868C47.0343 20.6126 45.9295 21.8024 44.5602 22.4823C43.5593 22.9922 42.4073 23.2 41.293 23.1244C39.31 22.9922 37.4404 21.8213 36.4205 20.1216C35.0796 18.0253 35.2213 15.1264 36.7227 13.1528C37.7236 11.7647 39.31 10.8393 41.0097 10.641Z" fill="#B756FE"/>
<path d="M22.0297 21.3114C22.6813 21.2548 23.3423 21.2737 23.9938 21.2737C26.4206 21.2737 28.838 21.2737 31.2648 21.2737C32.9456 21.2642 34.617 21.8874 35.8823 23.0017C37.0721 24.0404 37.9031 25.4852 38.158 27.0432C38.2997 27.7892 38.2619 28.5541 38.2714 29.3189C38.2714 33.6626 38.2714 37.9969 38.2714 42.3406C38.2902 42.8788 37.9692 43.4171 37.4687 43.6437C37.1288 43.8137 36.7322 43.7759 36.3639 43.7853C29.9711 43.7853 23.5878 43.7853 17.195 43.7853C16.4207 43.8231 15.7219 43.1243 15.7691 42.35C15.7691 37.6664 15.7691 32.9733 15.7691 28.2897C15.7691 26.7694 16.2696 25.2491 17.195 24.0404C18.347 22.5107 20.1411 21.5003 22.0297 21.3114Z" fill="white"/>
<path d="M5.1176 26.7599C6.34516 25.6173 7.98821 24.9563 9.65959 24.9186C10.9627 24.8997 12.2658 24.9091 13.5689 24.9091C13.1534 26.08 12.9646 27.3171 12.974 28.5635C12.974 32.69 12.974 36.8071 12.974 40.9336C12.9835 41.8873 12.8985 42.8599 13.2101 43.7759C11.5765 43.7759 9.95232 43.7759 8.31871 43.7759C7.62939 43.7664 6.94006 43.8042 6.25073 43.6909C5.46698 43.5398 4.73988 43.1715 4.15443 42.6239C3.35179 41.8684 2.89853 40.7731 2.85132 39.6588V31.7174C2.90798 29.8477 3.7295 28.0158 5.1176 26.7599Z" fill="#B756FE"/>
<path d="M40.481 24.9092C41.633 24.8997 42.785 24.9092 43.9276 24.9092C44.6264 24.9092 45.3346 24.9658 46.005 25.1452C47.5253 25.5418 48.8945 26.4861 49.8294 27.7515C50.6792 28.894 51.1513 30.2916 51.1891 31.7174V39.6589C51.1419 40.2915 51.0191 40.9336 50.717 41.5002C50.1315 42.6522 48.9795 43.5021 47.7047 43.7098C47.0437 43.8137 46.3827 43.7759 45.7123 43.7854C44.0787 43.7854 42.4545 43.7854 40.8209 43.7854C40.9814 43.266 41.0664 42.7183 41.057 42.1706C41.057 37.572 41.057 32.9733 41.057 28.3841C41.0759 27.1943 40.8681 26.0234 40.481 24.9092Z" fill="#B756FE"/>
</svg>
