<svg width="46" height="45" viewBox="0 0 46 45" fill="none" xmlns="http://www.w3.org/2000/svg">
<path fill-rule="evenodd" clip-rule="evenodd" d="M0.5 1.83334C0.5 0.820813 1.32081 0 2.33333 0H43.6667C44.6792 0 45.5 0.820811 45.5 1.83333V5.2197H0.5V1.83334ZM0.5 6.13636H45.5V26.803C45.5 27.8155 44.6792 28.6364 43.6667 28.6364H2.33333C1.32081 28.6364 0.5 27.8156 0.5 26.803V6.13636ZM3.48291 3.92045C4.00068 3.92045 4.42041 3.50072 4.42041 2.98295C4.42041 2.46519 4.00068 2.04545 3.48291 2.04545C2.96514 2.04545 2.54541 2.46519 2.54541 2.98295C2.54541 3.50072 2.96514 3.92045 3.48291 3.92045ZM8.17054 2.98295C8.17054 3.50072 7.7508 3.92045 7.23304 3.92045C6.71527 3.92045 6.29554 3.50072 6.29554 2.98295C6.29554 2.46519 6.71527 2.04545 7.23304 2.04545C7.7508 2.04545 8.17054 2.46519 8.17054 2.98295ZM10.9831 3.92045C11.5009 3.92045 11.9206 3.50072 11.9206 2.98295C11.9206 2.46519 11.5009 2.04545 10.9831 2.04545C10.4654 2.04545 10.0456 2.46519 10.0456 2.98295C10.0456 3.50072 10.4654 3.92045 10.9831 3.92045Z" fill="white"/>
<path d="M20.2686 23.1648C20.2686 23.441 20.4924 23.6648 20.7686 23.6648C21.0447 23.6648 21.2686 23.441 21.2686 23.1648L20.2686 23.1648ZM20.2686 19.1523L20.2686 23.1648L21.2686 23.1648L21.2686 19.1523L20.2686 19.1523Z" fill="#41E88D"/>
<path d="M22.8884 24.8223L20.7846 23.1775" stroke="#41E88D" stroke-linecap="round"/>
<path d="M22.9255 24.8223L22.9255 27.1483" stroke="#41E88D" stroke-linecap="round"/>
<circle cx="22.9255" cy="28.2641" r="0.615703" fill="#F6F6F7" stroke="#41E88D"/>
<path d="M18.9626 33.7311C18.9626 33.4549 18.7388 33.2311 18.4626 33.2311C18.1865 33.2311 17.9626 33.4549 17.9626 33.731L18.9626 33.7311ZM18.9626 38.8633L18.9626 33.7311L17.9626 33.731L17.9626 38.8633L18.9626 38.8633Z" fill="#41E88D"/>
<path d="M16.343 31.6113L18.4468 33.7151" stroke="#41E88D" stroke-linecap="round"/>
<path d="M16.3059 31.6113L16.3059 28.6361" stroke="#41E88D" stroke-linecap="round"/>
<circle cx="1.1157" cy="1.1157" r="0.615703" transform="matrix(1 0 0 -1 15.1155 28.6357)" fill="#F6F6F7" stroke="#41E88D"/>
<path d="M23.1282 31.6114C23.1282 31.3353 22.9043 31.1114 22.6282 31.1114C22.352 31.1114 22.1282 31.3353 22.1282 31.6114L23.1282 31.6114ZM23.1282 38.3057L23.1282 31.6114L22.1282 31.6114L22.1282 38.3057L23.1282 38.3057Z" fill="#41E88D"/>
<path d="M26.3472 30.124L22.6282 31.6116" stroke="#41E88D" stroke-linecap="round"/>
<path d="M26.3472 30.124L26.3472 26.405" stroke="#41E88D" stroke-linecap="round"/>
<circle cx="26.2727" cy="25.2896" r="0.615703" transform="rotate(180 26.2727 25.2896)" fill="#F6F6F7" stroke="#41E88D"/>
<path d="M26.4753 33.0978C26.4753 32.8216 26.2515 32.5978 25.9753 32.5978C25.6992 32.5978 25.4753 32.8216 25.4753 33.0978L26.4753 33.0978ZM26.4753 39.792L26.4753 33.0978L25.4753 33.0978L25.4753 39.792L26.4753 39.792Z" fill="#41E88D"/>
<path d="M29.6941 31.6104L25.9751 33.098" stroke="#41E88D" stroke-linecap="round"/>
<path d="M29.6941 31.6104L29.6941 29.3789" stroke="#41E88D" stroke-linecap="round"/>
<circle cx="29.6196" cy="28.2632" r="0.615703" transform="rotate(180 29.6196 28.2632)" fill="#F6F6F7" stroke="#41E88D"/>
<path d="M17.2935 24.5632C17.2935 24.8394 17.5173 25.0632 17.7935 25.0632C18.0696 25.0632 18.2935 24.8394 18.2935 24.5632L17.2935 24.5632ZM17.2935 19.7109L17.2935 24.5632L18.2935 24.5632L18.2935 19.7109L17.2935 19.7109Z" fill="#41E88D"/>
<path d="M19.9131 26.5674L17.8093 24.5783" stroke="#41E88D" stroke-linecap="round"/>
<path d="M19.9502 26.5674L19.9502 29.3803" stroke="#41E88D" stroke-linecap="round"/>
<circle cx="19.9504" cy="30.4956" r="0.615703" fill="#F6F6F7" stroke="#41E88D"/>
<path fill-rule="evenodd" clip-rule="evenodd" d="M19.7274 12.2725H26.2729V15.9571C27.4742 16.2664 28.6087 16.7418 29.6506 17.3575L32.2569 14.7512L36.8853 19.3795L34.2787 21.9861C34.8942 23.0278 35.3695 24.1623 35.6786 25.3634H39.3636V31.9089H35.6783C35.3691 33.1099 34.8937 34.2443 34.2782 35.2859L36.8851 37.8929L32.2568 42.5212L29.6497 39.9142C28.6081 40.5296 27.4738 41.0049 26.2728 41.314V44.9995H19.7274V41.3141C18.5262 41.005 17.3917 40.5296 16.35 39.9141L13.7435 42.5205L9.11519 37.8922L11.7216 35.2858C11.1061 34.2442 10.6308 33.1099 10.3216 31.9089H6.63647L6.63647 25.3634H10.3213C10.6304 24.162 11.1059 23.0274 11.7215 21.9855L9.11527 19.3792L13.7436 14.7508L16.3499 17.3571C17.3917 16.7415 18.5262 16.2662 19.7274 15.957V12.2725ZM13.5268 28.6356C13.5268 33.8674 17.7681 38.1087 22.9999 38.1087C28.2318 38.1087 32.4731 33.8674 32.4731 28.6356C32.4731 23.4037 28.2318 19.1624 22.9999 19.1624C17.7681 19.1624 13.5268 23.4037 13.5268 28.6356Z" fill="#41E88D"/>
</svg>
