<svg width="342" height="231" viewBox="0 0 342 231" fill="none" xmlns="http://www.w3.org/2000/svg">
<rect y="0.779785" width="342" height="230" rx="4" fill="#060B27"/>
<rect x="163.845" y="49.2661" width="164.879" height="131.742" rx="7.67819" transform="rotate(13.3229 163.845 49.2661)" fill="#0E1330" stroke="#282D45" stroke-width="0.80823"/>
<path d="M173.063 66.6339C173.877 66.8268 174.551 67.1569 175.084 67.6242C175.617 68.0915 175.979 68.6578 176.17 69.3233C176.37 69.9831 176.38 70.6948 176.199 71.4582C176.02 72.2142 175.692 72.8459 175.216 73.3532C174.746 73.8622 174.165 74.2052 173.472 74.3822C172.786 74.5609 172.04 74.5546 171.232 74.3634L168.336 73.6776L170.167 65.9481L173.063 66.6339ZM171.497 72.7051C172.209 72.8737 172.809 72.8105 173.298 72.5153C173.786 72.2201 174.115 71.7165 174.283 71.0045C174.452 70.2925 174.385 69.6913 174.083 69.2011C173.78 68.7108 173.273 68.3814 172.561 68.2128L171.669 68.0016L170.605 72.4939L171.497 72.7051ZM176.692 72.4005C176.842 71.7692 177.09 71.2428 177.438 70.8213C177.793 70.4015 178.207 70.1118 178.679 69.9523C179.151 69.7927 179.64 69.7729 180.146 69.8928C180.579 69.9954 180.937 70.173 181.218 70.4257C181.506 70.6801 181.705 70.9713 181.813 71.2992L182.019 70.4294L183.902 70.8753L182.447 77.0193L180.564 76.5734L180.77 75.7035C180.519 75.9464 180.207 76.1167 179.835 76.2147C179.471 76.3144 179.072 76.3129 178.639 76.2104C178.14 76.0922 177.715 75.8559 177.365 75.5017C177.016 75.1401 176.777 74.692 176.648 74.1575C176.528 73.6174 176.543 73.0317 176.692 72.4005ZM181.292 73.5014C181.403 73.0316 181.359 72.6296 181.159 72.2954C180.966 71.963 180.683 71.7525 180.308 71.6638C179.934 71.5751 179.583 71.6353 179.254 71.8444C178.934 72.0478 178.719 72.3844 178.608 72.8542C178.497 73.3239 178.536 73.7287 178.727 74.0685C178.927 74.4027 179.214 74.6141 179.589 74.7028C179.963 74.7914 180.311 74.7304 180.632 74.5196C180.961 74.3106 181.181 73.9712 181.292 73.5014ZM186.288 78.0218C185.752 77.8949 185.297 77.6902 184.922 77.4076C184.547 77.125 184.276 76.7972 184.108 76.4242C183.942 76.0438 183.892 75.652 183.956 75.2486L185.817 75.6893C185.789 75.9074 185.847 76.1034 185.992 76.2772C186.137 76.4511 186.338 76.5684 186.594 76.6292C186.829 76.6849 187.02 76.6834 187.165 76.6249C187.32 76.5607 187.415 76.4553 187.45 76.3085C187.491 76.1323 187.43 75.9821 187.266 75.8579C187.103 75.7264 186.828 75.5605 186.441 75.3604C186.025 75.1533 185.684 74.96 185.416 74.7804C185.15 74.5934 184.94 74.3536 184.784 74.0609C184.63 73.7609 184.603 73.4017 184.702 72.9833C184.785 72.631 184.956 72.3343 185.215 72.0932C185.483 71.8465 185.824 71.6831 186.238 71.6029C186.66 71.5245 187.131 71.5469 187.652 71.6704C188.423 71.8529 188.984 72.1872 189.334 72.6732C189.691 73.1609 189.828 73.7282 189.745 74.3752L188.005 73.9632C188.026 73.7433 187.971 73.5519 187.839 73.3889C187.714 73.2276 187.523 73.1165 187.266 73.0557C187.046 73.0035 186.867 73.0076 186.729 73.0679C186.592 73.1208 186.506 73.2207 186.472 73.3675C186.43 73.5437 186.49 73.6975 186.653 73.8291C186.823 73.9623 187.096 74.12 187.471 74.3019C187.898 74.5271 188.241 74.7324 188.5 74.9176C188.76 75.0955 188.966 75.3381 189.118 75.6455C189.279 75.9472 189.313 76.3118 189.22 76.7393C189.134 77.0989 188.955 77.3976 188.682 77.6352C188.418 77.8672 188.076 78.0188 187.656 78.0899C187.243 78.1627 186.787 78.14 186.288 78.0218ZM195.196 73.4801C195.901 73.647 196.411 74.0157 196.725 74.5863C197.041 75.1496 197.103 75.8386 196.91 76.6534L196.06 80.2429L194.188 79.7997L194.978 76.4634C195.076 76.0523 195.045 75.7078 194.886 75.4299C194.727 75.1519 194.468 74.9703 194.108 74.8852C193.748 74.8 193.435 74.846 193.168 75.0231C192.901 75.2002 192.719 75.4944 192.622 75.9054L191.832 79.2417L189.949 78.7958L191.879 70.6479L193.761 71.0937L193.091 73.9235C193.347 73.6971 193.658 73.5423 194.027 73.459C194.396 73.3757 194.785 73.3828 195.196 73.4801ZM200.5 75.7245C200.744 75.48 201.052 75.3087 201.424 75.2108C201.796 75.1128 202.195 75.1142 202.621 75.2151C203.127 75.335 203.556 75.5721 203.906 75.9264C204.256 76.2806 204.492 76.7241 204.614 77.2569C204.743 77.7914 204.733 78.3743 204.584 79.0056C204.434 79.6368 204.181 80.166 203.824 80.5931C203.476 81.0146 203.065 81.3089 202.592 81.4758C202.12 81.6353 201.631 81.6551 201.124 81.5352C200.691 81.4326 200.333 81.2587 200.05 81.0134C199.769 80.7607 199.57 80.4695 199.455 80.1398L199.251 80.9986L197.368 80.5528L199.298 72.4048L201.181 72.8507L200.5 75.7245ZM202.668 78.5519C202.779 78.0821 202.734 77.6838 202.532 77.3569C202.34 77.0245 202.053 76.8131 201.671 76.7227C201.297 76.634 200.945 76.6942 200.616 76.9032C200.295 77.114 200.079 77.4543 199.968 77.924C199.856 78.3938 199.897 78.7949 200.09 79.1274C200.29 79.4616 200.577 79.673 200.951 79.7616C201.326 79.8503 201.677 79.7901 202.006 79.5811C202.336 79.3647 202.557 79.0216 202.668 78.5519ZM207.617 83.0729C207.015 82.9303 206.503 82.6732 206.079 82.3016C205.663 81.9317 205.372 81.4751 205.206 80.9319C205.047 80.3905 205.043 79.8005 205.195 79.1618C205.344 78.5306 205.615 78.0094 206.007 77.5983C206.4 77.1799 206.87 76.8996 207.415 76.7574C207.961 76.6152 208.534 76.6154 209.136 76.7579C209.738 76.9005 210.251 77.1576 210.674 77.5292C211.098 77.9008 211.392 78.3619 211.556 78.9125C211.722 79.4556 211.73 80.0429 211.581 80.6742C211.431 81.3054 211.156 81.8294 210.755 82.2461C210.363 82.6572 209.891 82.9329 209.338 83.0734C208.793 83.2156 208.219 83.2154 207.617 83.0729ZM208.003 81.4433C208.363 81.5284 208.699 81.4685 209.011 81.2633C209.331 81.0599 209.549 80.7123 209.665 80.2205C209.781 79.7286 209.746 79.3211 209.559 78.9977C209.38 78.6761 209.11 78.4727 208.75 78.3875C208.383 78.3006 208.047 78.3606 207.742 78.5675C207.439 78.767 207.229 79.1164 207.111 79.6155C206.994 80.1073 207.022 80.5132 207.194 80.8331C207.374 81.1547 207.644 81.3581 208.003 81.4433ZM212.208 80.811C212.357 80.1798 212.606 79.6534 212.954 79.2319C213.309 78.8121 213.723 78.5224 214.195 78.3629C214.667 78.2033 215.156 78.1835 215.662 78.3034C216.095 78.406 216.453 78.5836 216.734 78.8362C217.022 79.0906 217.221 79.3818 217.329 79.7098L217.535 78.84L219.418 79.2859L217.963 85.4298L216.08 84.984L216.286 84.1141C216.035 84.3569 215.723 84.5273 215.351 84.6253C214.987 84.7249 214.588 84.7235 214.155 84.6209C213.655 84.5027 213.231 84.2665 212.881 83.9122C212.532 83.5506 212.293 83.1026 212.164 82.5681C212.044 82.028 212.058 81.4423 212.208 80.811ZM216.808 81.912C216.919 81.4422 216.875 81.0402 216.675 80.706C216.482 80.3736 216.199 80.163 215.824 80.0744C215.45 79.9857 215.099 80.0459 214.77 80.2549C214.45 80.4583 214.235 80.7949 214.124 81.2647C214.013 81.7345 214.052 82.1393 214.243 82.4791C214.443 82.8133 214.73 83.0247 215.105 83.1133C215.479 83.202 215.827 83.1409 216.148 82.9302C216.477 82.7212 216.697 82.3818 216.808 81.912ZM222.421 81.0783C222.721 80.7928 223.059 80.5937 223.434 80.4811C223.811 80.3611 224.202 80.3489 224.606 80.4445L224.134 82.4375L223.616 82.3149C223.146 82.2037 222.77 82.223 222.486 82.3729C222.204 82.5155 222.003 82.84 221.883 83.3465L221.208 86.1983L219.325 85.7524L220.78 79.6084L222.663 80.0543L222.421 81.0783ZM224.391 83.696C224.54 83.0648 224.789 82.5384 225.137 82.1169C225.492 81.6971 225.906 81.4074 226.377 81.2479C226.849 81.0883 227.339 81.0685 227.845 81.1884C228.249 81.284 228.596 81.4554 228.886 81.7024C229.184 81.9512 229.394 82.2413 229.517 82.5728L230.193 79.721L232.075 80.1669L230.146 88.3148L228.263 87.869L228.472 86.9881C228.226 87.24 227.917 87.4149 227.545 87.5129C227.18 87.6126 226.781 87.6111 226.348 87.5086C225.842 87.3886 225.414 87.1515 225.063 86.7973C224.715 86.4357 224.476 85.9876 224.347 85.4531C224.227 84.913 224.241 84.3273 224.391 83.696ZM228.991 84.797C229.102 84.3272 229.057 83.9252 228.858 83.591C228.665 83.2586 228.381 83.048 228.007 82.9594C227.633 82.8707 227.281 82.9309 226.953 83.1399C226.633 83.3434 226.418 83.68 226.307 84.1497C226.195 84.6195 226.235 85.0243 226.426 85.3641C226.626 85.6983 226.913 85.9097 227.287 85.9983C227.662 86.087 228.01 86.0259 228.331 85.8152C228.659 85.6062 228.879 85.2668 228.991 84.797ZM237.783 90.1234L236.867 86.8249L236.415 86.718L235.724 89.6358L233.841 89.19L235.672 81.4604L238.832 82.2088C239.441 82.3531 239.933 82.5821 240.309 82.8958C240.691 83.2112 240.945 83.5813 241.069 84.0061C241.195 84.4235 241.204 84.8598 241.096 85.3149C240.975 85.8287 240.719 86.2527 240.33 86.5869C239.948 86.9228 239.455 87.1083 238.849 87.1433L239.908 90.6267L237.783 90.1234ZM236.731 85.3857L237.898 85.6621C238.243 85.7438 238.52 85.7202 238.729 85.5914C238.945 85.4643 239.089 85.2466 239.162 84.9383C239.232 84.6446 239.198 84.3926 239.062 84.182C238.933 83.9732 238.697 83.8279 238.352 83.7462L237.184 83.4698L236.731 85.3857ZM247.567 89.0914C247.525 89.2675 247.471 89.4484 247.403 89.6341L243.142 88.625C243.081 89.0136 243.133 89.3359 243.297 89.5919C243.47 89.8422 243.715 90.0048 244.03 90.0795C244.5 90.1908 244.874 90.0699 245.151 89.717L247.155 90.1916C246.957 90.571 246.683 90.89 246.335 91.1486C245.995 91.409 245.601 91.5832 245.153 91.6711C244.706 91.759 244.233 91.7439 243.734 91.6257C243.132 91.4831 242.627 91.2278 242.218 90.8596C241.809 90.4914 241.529 90.0375 241.377 89.4978C241.226 88.9581 241.226 88.3689 241.377 87.7303C241.528 87.0917 241.789 86.5642 242.159 86.1479C242.536 85.7334 242.99 85.4533 243.521 85.3076C244.051 85.1619 244.621 85.1612 245.231 85.3055C245.825 85.4463 246.324 85.6963 246.728 86.0553C247.131 86.4144 247.406 86.8556 247.554 87.3789C247.708 87.9039 247.713 88.4748 247.567 89.0914ZM245.757 88.1396C245.834 87.8166 245.784 87.5336 245.609 87.2906C245.434 87.0476 245.182 86.887 244.851 86.8088C244.536 86.734 244.246 86.7623 243.982 86.8937C243.726 87.0268 243.532 87.2561 243.401 87.5816L245.757 88.1396ZM250.941 87.6694C251.192 87.4266 251.5 87.2553 251.865 87.1557C252.23 87.056 252.628 87.0574 253.062 87.16C253.568 87.2799 253.996 87.517 254.347 87.8713C254.697 88.2255 254.933 88.669 255.055 89.2018C255.184 89.7363 255.174 90.3192 255.024 90.9505C254.875 91.5817 254.622 92.1109 254.265 92.538C253.917 92.9595 253.506 93.2538 253.032 93.4207C252.561 93.5802 252.071 93.6 251.565 93.4801C251.139 93.3793 250.782 93.2017 250.493 92.9473C250.212 92.6946 250.013 92.4071 249.895 92.0847L248.998 95.8724L247.115 95.4265L249.264 86.3537L251.147 86.7996L250.941 87.6694ZM253.109 90.4968C253.22 90.027 253.175 89.6287 252.973 89.3018C252.78 88.9694 252.493 88.758 252.111 88.6676C251.737 88.5789 251.386 88.6391 251.057 88.8481C250.736 89.0589 250.52 89.3992 250.408 89.8689C250.297 90.3387 250.338 90.7398 250.53 91.0723C250.73 91.4065 251.017 91.6179 251.392 91.7065C251.766 91.7952 252.118 91.735 252.446 91.526C252.777 91.3096 252.997 90.9666 253.109 90.4968ZM258.058 95.0178C257.456 94.8752 256.943 94.6181 256.52 94.2465C256.103 93.8766 255.812 93.42 255.646 92.8768C255.488 92.3354 255.484 91.7454 255.635 91.1067C255.785 90.4755 256.055 89.9543 256.447 89.5432C256.841 89.1248 257.311 88.8445 257.856 88.7023C258.401 88.5601 258.975 88.5603 259.577 88.7028C260.179 88.8454 260.691 89.1025 261.115 89.4741C261.539 89.8457 261.833 90.3068 261.997 90.8574C262.163 91.4005 262.171 91.9878 262.021 92.6191C261.872 93.2503 261.597 93.7743 261.196 94.191C260.804 94.6021 260.332 94.8778 259.779 95.0183C259.234 95.1605 258.66 95.1603 258.058 95.0178ZM258.444 93.3882C258.804 93.4733 259.14 93.4134 259.452 93.2082C259.771 93.0048 259.989 92.6572 260.106 92.1654C260.222 91.6735 260.187 91.266 260 90.9426C259.82 90.621 259.55 90.4176 259.191 90.3324C258.824 90.2455 258.488 90.3055 258.183 90.5124C257.88 90.7119 257.669 91.0613 257.551 91.5604C257.435 92.0522 257.463 92.4581 257.635 92.778C257.815 93.0996 258.084 93.303 258.444 93.3882ZM265.388 91.2535C265.688 90.968 266.026 90.7689 266.402 90.6563C266.779 90.5363 267.169 90.5241 267.573 90.6197L267.101 92.6127L266.584 92.4901C266.114 92.3789 265.737 92.3982 265.454 92.5481C265.172 92.6907 264.971 93.0152 264.851 93.5217L264.176 96.3735L262.293 95.9276L263.748 89.7836L265.631 90.2295L265.388 91.2535ZM270.805 96.2573L270.427 97.8538L269.469 97.627C268.786 97.4653 268.293 97.1741 267.99 96.7534C267.688 96.3253 267.627 95.7333 267.806 94.9772L268.385 92.5328L267.636 92.3555L268.006 90.792L268.755 90.9693L269.109 89.4719L270.992 89.9177L270.638 91.4152L271.871 91.7072L271.501 93.2707L270.267 92.9787L269.683 95.4451C269.64 95.6286 269.653 95.7712 269.722 95.8728C269.79 95.9744 269.928 96.0495 270.133 96.0982L270.805 96.2573Z" fill="#8F9BB7"/>
<line x1="185.039" y1="98.306" x2="302.225" y2="126.057" stroke="#282D45" stroke-width="0.80823"/>
<line x1="179.452" y1="121.9" x2="296.637" y2="149.651" stroke="#282D45" stroke-width="0.80823"/>
<line x1="173.865" y1="145.494" x2="291.05" y2="173.245" stroke="#282D45" stroke-width="0.80823"/>
<line x1="168.277" y1="169.089" x2="285.463" y2="196.839" stroke="#282D45" stroke-width="0.80823"/>
<path d="M163.828 90.8085L164.183 89.3079L166.797 89.927L165.166 96.8165L163.486 96.4187L164.762 91.0298L163.828 90.8085ZM167.108 93.5388C167.364 92.4566 167.774 91.6533 168.336 91.1287C168.906 90.6057 169.656 90.4544 170.587 90.6749C171.518 90.8954 172.117 91.3663 172.385 92.0875C172.659 92.8102 172.668 93.7127 172.412 94.7949C172.153 95.8897 171.738 96.6986 171.169 97.2216C170.607 97.7462 169.86 97.8982 168.928 97.6777C167.997 97.4572 167.395 96.9856 167.121 96.2628C166.853 95.5416 166.849 94.6336 167.108 93.5388ZM170.826 94.4194C170.977 93.7839 171.023 93.2799 170.965 92.9074C170.909 92.5286 170.663 92.2877 170.229 92.1849C169.795 92.0821 169.468 92.1874 169.247 92.5006C169.029 92.8076 168.844 93.2788 168.693 93.9143C168.592 94.3422 168.533 94.7036 168.516 94.9987C168.501 95.2874 168.548 95.5378 168.657 95.7497C168.775 95.9568 168.984 96.0961 169.286 96.1677C169.588 96.2392 169.835 96.2079 170.026 96.0738C170.225 95.9348 170.382 95.7329 170.498 95.468C170.616 95.1968 170.725 94.8473 170.826 94.4194ZM173.265 94.9968C173.521 93.9146 173.93 93.1112 174.493 92.5867C175.062 92.0636 175.812 91.9123 176.743 92.1329C177.675 92.3534 178.274 92.8242 178.542 93.5455C178.816 94.2682 178.825 95.1707 178.569 96.2528C178.309 97.3476 177.895 98.1565 177.326 98.6796C176.763 99.2042 176.016 99.3562 175.085 99.1357C174.154 98.9151 173.551 98.4435 173.277 97.7208C173.01 96.9996 173.005 96.0916 173.265 94.9968ZM176.983 95.8774C177.133 95.2419 177.18 94.7379 177.122 94.3654C177.065 93.9865 176.82 93.7457 176.386 93.6429C175.952 93.5401 175.624 93.6453 175.404 93.9586C175.185 94.2656 175.001 94.7368 174.85 95.3723C174.749 95.8001 174.69 96.1616 174.673 96.4566C174.658 96.7454 174.705 96.9957 174.814 97.2077C174.931 97.4148 175.141 97.5541 175.443 97.6256C175.745 97.6971 175.991 97.6658 176.183 97.5317C176.382 97.3928 176.539 97.1909 176.655 96.926C176.772 96.6547 176.882 96.3052 176.983 95.8774Z" fill="#8F9BB7"/>
<path d="M166.451 116.726C166.456 116.481 166.409 116.287 166.31 116.144C166.212 115.995 166.047 115.892 165.814 115.837C165.456 115.752 165.16 115.849 164.929 116.126C164.698 116.397 164.5 116.868 164.335 117.54C164.525 117.353 164.764 117.227 165.052 117.162C165.346 117.099 165.65 117.104 165.965 117.179C166.582 117.325 167.029 117.637 167.308 118.115C167.593 118.594 167.653 119.183 167.488 119.882C167.379 120.341 167.189 120.721 166.919 121.022C166.654 121.325 166.32 121.532 165.915 121.642C165.516 121.754 165.075 121.752 164.59 121.637C163.621 121.408 163.02 120.946 162.785 120.253C162.552 119.553 162.57 118.634 162.84 117.495C163.123 116.3 163.531 115.459 164.065 114.975C164.606 114.485 165.317 114.344 166.198 114.553C166.67 114.664 167.044 114.853 167.32 115.117C167.604 115.377 167.792 115.678 167.884 116.019C167.983 116.361 168.005 116.715 167.952 117.081L166.451 116.726ZM165.276 118.361C165.006 118.297 164.76 118.325 164.539 118.446C164.325 118.561 164.184 118.767 164.114 119.063C164.042 119.365 164.068 119.62 164.191 119.828C164.321 120.039 164.54 120.18 164.848 120.253C165.125 120.319 165.361 120.288 165.558 120.162C165.761 120.031 165.897 119.821 165.966 119.531C166.036 119.235 166.013 118.984 165.895 118.777C165.778 118.57 165.572 118.431 165.276 118.361ZM168.7 118.833C168.956 117.751 169.366 116.947 169.929 116.423C170.498 115.9 171.248 115.749 172.179 115.969C173.11 116.19 173.71 116.66 173.977 117.382C174.251 118.104 174.26 119.007 174.004 120.089C173.745 121.184 173.331 121.993 172.762 122.516C172.199 123.04 171.452 123.192 170.521 122.972C169.589 122.751 168.987 122.28 168.713 121.557C168.445 120.836 168.441 119.928 168.7 118.833ZM172.419 119.714C172.569 119.078 172.615 118.574 172.557 118.202C172.501 117.823 172.256 117.582 171.821 117.479C171.387 117.376 171.06 117.482 170.84 117.795C170.621 118.102 170.436 118.573 170.286 119.208C170.184 119.636 170.125 119.998 170.109 120.293C170.093 120.582 170.14 120.832 170.25 121.044C170.367 121.251 170.576 121.39 170.878 121.462C171.18 121.533 171.427 121.502 171.618 121.368C171.817 121.229 171.975 121.027 172.09 120.762C172.208 120.491 172.317 120.141 172.419 119.714Z" fill="#8F9BB7"/>
<path d="M157.307 140.398C157.492 139.731 157.835 139.264 158.336 138.997C158.838 138.731 159.444 138.682 160.155 138.85C160.627 138.962 161.011 139.139 161.305 139.381C161.606 139.625 161.808 139.909 161.911 140.232C162.02 140.557 162.033 140.896 161.95 141.248C161.851 141.664 161.667 141.979 161.397 142.194C161.128 142.403 160.844 142.521 160.545 142.55L160.536 142.588C160.866 142.792 161.103 143.058 161.245 143.384C161.387 143.71 161.406 144.09 161.304 144.524C161.211 144.914 161.038 145.238 160.784 145.497C160.538 145.751 160.222 145.922 159.835 146.01C159.455 146.1 159.029 146.088 158.557 145.977C157.802 145.798 157.242 145.469 156.877 144.991C156.518 144.514 156.415 143.898 156.567 143.143L158.134 143.514C158.075 143.792 158.101 144.031 158.213 144.231C158.327 144.424 158.529 144.555 158.818 144.623C159.064 144.681 159.269 144.657 159.434 144.55C159.606 144.438 159.72 144.265 159.775 144.032C159.847 143.73 159.801 143.49 159.637 143.312C159.481 143.129 159.192 142.987 158.771 142.888L158.469 142.816L158.779 141.504L159.081 141.576C159.402 141.652 159.673 141.659 159.893 141.599C160.121 141.533 160.269 141.359 160.336 141.075C160.39 140.849 160.369 140.658 160.272 140.502C160.176 140.347 160.018 140.243 159.798 140.191C159.559 140.134 159.363 140.164 159.209 140.28C159.061 140.398 158.953 140.562 158.883 140.771L157.307 140.398ZM162.632 143.144C162.888 142.062 163.297 141.258 163.86 140.734C164.429 140.211 165.179 140.06 166.111 140.28C167.042 140.501 167.641 140.971 167.909 141.693C168.183 142.415 168.192 143.318 167.936 144.4C167.676 145.495 167.262 146.304 166.693 146.827C166.13 147.351 165.383 147.503 164.452 147.283C163.521 147.062 162.918 146.591 162.644 145.868C162.377 145.147 162.372 144.239 162.632 143.144ZM166.35 144.025C166.501 143.389 166.547 142.885 166.489 142.513C166.432 142.134 166.187 141.893 165.753 141.79C165.319 141.687 164.992 141.793 164.771 142.106C164.552 142.413 164.368 142.884 164.217 143.519C164.116 143.947 164.057 144.309 164.04 144.604C164.025 144.893 164.072 145.143 164.181 145.355C164.298 145.562 164.508 145.701 164.81 145.773C165.112 145.844 165.358 145.813 165.55 145.679C165.749 145.54 165.906 145.338 166.022 145.073C166.139 144.802 166.249 144.452 166.35 144.025Z" fill="#8F9BB7"/>
<path d="M156.649 167.475C156.905 166.393 157.315 165.59 157.877 165.065C158.446 164.542 159.197 164.391 160.128 164.611C161.059 164.832 161.658 165.303 161.926 166.024C162.2 166.747 162.209 167.649 161.953 168.731C161.694 169.826 161.279 170.635 160.71 171.158C160.148 171.683 159.401 171.835 158.469 171.614C157.538 171.394 156.936 170.922 156.662 170.199C156.394 169.478 156.39 168.57 156.649 167.475ZM160.367 168.356C160.518 167.72 160.564 167.216 160.506 166.844C160.45 166.465 160.204 166.224 159.77 166.121C159.336 166.019 159.009 166.124 158.788 166.437C158.57 166.744 158.385 167.215 158.234 167.851C158.133 168.279 158.074 168.64 158.057 168.935C158.042 169.224 158.089 169.474 158.198 169.686C158.316 169.893 158.525 170.033 158.827 170.104C159.129 170.176 159.376 170.144 159.567 170.01C159.766 169.871 159.923 169.669 160.039 169.405C160.157 169.133 160.266 168.784 160.367 168.356Z" fill="#8F9BB7"/>
<path d="M171.599 160.324C175.497 163.739 184.337 168.595 190.795 166.946C200.077 164.576 206.909 157.363 213.643 144.117C218.92 133.739 223.081 130.571 233.284 131.326C249.089 132.496 254.447 138.414 257.541 142.884C260.635 147.355 261.298 153.326 270.736 155.561C280.173 157.796 288.7 134.067 295.871 135.35" stroke="#32CAFD" stroke-width="1.61646"/>
<path d="M174.02 150.1C183.099 149.758 202.354 152.158 206.742 164.493C212.227 179.912 220.749 180.486 224.562 178.68C229.24 176.466 234.868 156.203 246.686 160.663C258.504 165.123 275.558 149.228 277.193 138.817C278.827 128.407 291.98 121.97 300.466 126.471" stroke="#7214FF" stroke-width="1.61646"/>
<circle cx="103" cy="41.7798" r="22" fill="#FFC933"/>
<rect width="24" height="24" transform="translate(91 29.7798)" fill="#FFC933"/>
<path d="M108.918 44.0998C108.659 44.3508 108.54 44.7138 108.599 45.0698L109.488 49.9898C109.563 50.4068 109.387 50.8288 109.038 51.0698C108.696 51.3198 108.241 51.3498 107.868 51.1498L103.439 48.8398C103.285 48.7578 103.114 48.7138 102.939 48.7088H102.668C102.574 48.7228 102.482 48.7528 102.398 48.7988L97.9684 51.1198C97.7494 51.2298 97.5014 51.2688 97.2584 51.2298C96.6664 51.1178 96.2714 50.5538 96.3684 49.9588L97.2584 45.0388C97.3174 44.6798 97.1984 44.3148 96.9394 44.0598L93.3284 40.5598C93.0264 40.2668 92.9214 39.8268 93.0594 39.4298C93.1934 39.0338 93.5354 38.7448 93.9484 38.6798L98.9184 37.9588C99.2964 37.9198 99.6284 37.6898 99.7984 37.3498L101.988 32.8598C102.04 32.7598 102.107 32.6678 102.188 32.5898L102.278 32.5198C102.325 32.4678 102.379 32.4248 102.439 32.3898L102.548 32.3498L102.718 32.2798H103.139C103.515 32.3188 103.846 32.5438 104.019 32.8798L106.238 37.3498C106.398 37.6768 106.709 37.9038 107.068 37.9588L112.038 38.6798C112.458 38.7398 112.809 39.0298 112.948 39.4298C113.079 39.8308 112.966 40.2708 112.658 40.5598L108.918 44.0998Z" fill="black"/>
<rect x="25.5346" y="93.5634" width="87" height="111" rx="5.5" transform="rotate(-4.11899 25.5346 93.5634)" fill="#0E1330" stroke="#282D45"/>
<circle cx="71.3284" cy="123.852" r="19" transform="rotate(-4.11899 71.3284 123.852)" fill="#7214FF"/>
<g clip-path="url(#clip0_317_750)">
<path d="M73.1738 114.844C75.9525 114.285 77.8377 115.546 78.4039 118.324L79.9365 125.954C80.4943 128.732 79.2342 130.626 76.4555 131.184L68.8253 132.716C66.0467 133.274 64.154 132.014 63.5961 129.236L62.0635 121.605C61.5055 118.827 62.765 116.934 65.5437 116.376L73.1738 114.844ZM70.4453 118.902C70.1879 118.809 69.9101 118.865 69.7182 119.048C69.5245 119.23 69.4538 119.509 69.5284 119.758L71.2004 128.083C71.3126 128.426 71.6584 128.628 72.0016 128.56C72.3537 128.489 72.5945 128.168 72.5566 127.811L70.8846 119.485C70.8664 119.225 70.6937 118.996 70.4453 118.902ZM67.168 122.348C66.9196 122.253 66.641 122.309 66.4491 122.492C66.2556 122.676 66.1845 122.953 66.2601 123.202L67.3939 128.847C67.4963 129.192 67.8429 129.395 68.1942 129.324C68.5464 129.253 68.7872 128.933 68.7493 128.575L67.6155 122.93C67.5898 122.67 67.4157 122.443 67.168 122.348ZM75.3285 123.795C75.0808 123.7 74.803 123.756 74.6021 123.94C74.4086 124.124 74.3359 124.392 74.4213 124.648L74.9595 127.328C75.0627 127.673 75.4085 127.875 75.7607 127.805C76.1038 127.736 76.3446 127.415 76.3157 127.056L75.7775 124.376C75.7486 124.109 75.5778 123.889 75.3285 123.795Z" fill="#060B27"/>
</g>
<path d="M52.8831 157.822L52.609 154.016L59.2398 153.538L60.4982 171.013L56.2373 171.32L55.2529 157.651L52.8831 157.822ZM62.5387 158.258C62.4796 156.545 62.9433 155.189 63.93 154.187C64.9166 153.186 66.3115 152.62 68.1149 152.49C69.3118 152.404 70.3481 152.538 71.2238 152.892C72.1154 153.245 72.8025 153.765 73.2851 154.452C73.7837 155.138 74.0652 155.928 74.1295 156.821C74.2054 157.875 74.0041 158.755 73.5257 159.464C73.0462 160.156 72.464 160.647 71.779 160.937L71.7859 161.033C72.7174 161.27 73.4718 161.721 74.049 162.385C74.6262 163.05 74.9544 163.932 75.0337 165.034C75.105 166.023 74.9368 166.917 74.5291 167.717C74.1363 168.499 73.5166 169.137 72.6699 169.631C71.8391 170.124 70.8253 170.414 69.6284 170.5C67.7134 170.638 66.1474 170.277 64.9306 169.419C63.7297 168.559 63.029 167.181 62.8284 165.287L66.8021 165.001C66.8686 165.702 67.1083 166.246 67.5212 166.633C67.933 167.005 68.5059 167.164 69.24 167.111C69.8624 167.066 70.3285 166.856 70.6383 166.481C70.963 166.089 71.1041 165.597 71.0615 165.007C71.0064 164.241 70.7194 163.708 70.2005 163.409C69.6965 163.092 68.9098 162.972 67.8406 163.049L67.0746 163.104L66.835 159.777L67.601 159.722C68.4149 159.663 69.0594 159.48 69.5346 159.173C70.0246 158.849 70.2437 158.328 70.192 157.61C70.1506 157.036 69.9589 156.6 69.6167 156.304C69.2745 156.008 68.8242 155.88 68.2656 155.92C67.6592 155.964 67.2176 156.18 66.9408 156.569C66.68 156.957 66.5452 157.424 66.5364 157.97L62.5387 158.258ZM77.6638 166.649L77.4259 163.345L84.2111 151.981L88.7833 151.651L89.5452 162.232L91.5081 162.091L91.7633 165.633L89.8004 165.775L90.0245 168.887L85.9311 169.182L85.707 166.07L77.6638 166.649ZM85.3012 156.426L81.7175 162.796L85.7391 162.506L85.3012 156.426Z" fill="#8F9BB7"/>
<path d="M60.0801 186.145C61.7677 186.023 62.7844 184.771 62.668 183.155C62.5482 181.492 61.3789 180.457 59.6793 180.579L56.316 180.821L56.9392 189.475L58.1121 189.391L57.8897 186.303L60.0801 186.145ZM59.5516 181.647C60.6528 181.568 61.3559 182.143 61.4343 183.232C61.5111 184.297 60.9139 185.026 59.7529 185.11L57.8139 185.249L57.5648 181.79L59.5516 181.647ZM67.1547 182.808C66.9238 182.777 66.7545 182.765 66.551 182.779C65.7491 182.837 65.192 183.286 64.9965 183.914L64.8609 183.033L63.8077 183.109L64.2283 188.95L65.3534 188.869L65.1301 185.769C65.0491 184.644 65.6609 183.95 66.7261 183.874L67.2288 183.837L67.1547 182.808ZM67.8303 185.743C67.9604 187.55 69.3444 188.726 71.1039 188.599C72.8514 188.474 74.0526 187.112 73.9225 185.304C73.7923 183.497 72.4083 182.321 70.6608 182.447C68.9014 182.574 67.7001 183.936 67.8303 185.743ZM68.9673 185.661C68.8794 184.44 69.5962 183.535 70.7332 183.453C71.8583 183.372 72.7095 184.165 72.7974 185.385C72.8853 186.606 72.1566 187.513 71.0315 187.594C69.8944 187.676 69.0552 186.882 68.9673 185.661ZM75.4202 180.865C75.8151 180.837 76.1381 180.477 76.1088 180.07C76.0786 179.651 75.7083 179.353 75.3133 179.381C74.8944 179.411 74.5945 179.758 74.6246 180.177C74.654 180.584 75.0013 180.896 75.4202 180.865ZM74.0863 190.911C74.4283 190.983 74.6207 190.981 74.9199 190.959C76.057 190.878 76.6507 190.101 76.5662 188.928L76.0827 182.213L74.9576 182.294L75.4334 188.901C75.4808 189.559 75.2878 189.886 74.7492 189.925C74.5696 189.938 74.4362 189.923 74.2045 189.88L74.0863 190.911ZM80.6734 187.91C82.1216 187.806 83.0522 187.029 83.249 185.752L82.1957 185.828C82.0525 186.512 81.5038 186.912 80.6301 186.975C79.517 187.055 78.8215 186.419 78.649 185.193L83.1724 184.855L83.1422 184.436C83.0172 182.7 81.8453 181.63 80.1816 181.75C78.482 181.872 77.4124 183.224 77.5443 185.056C77.6753 186.875 78.9498 188.034 80.6734 187.91ZM80.2497 182.695C81.2431 182.624 81.924 183.224 81.9938 184.194L78.6186 184.437C78.6881 183.397 79.2682 182.766 80.2497 182.695ZM84.0314 184.588C84.1641 186.432 85.3891 187.571 87.1126 187.447C88.525 187.345 89.5529 186.417 89.689 185.131L88.5639 185.213C88.4104 185.921 87.8421 186.383 87.0402 186.441C85.975 186.518 85.2341 185.753 85.1436 184.496C85.0523 183.228 85.7238 182.361 86.789 182.284C87.543 182.23 88.1699 182.582 88.4149 183.31L89.54 183.229C89.2425 181.939 88.1529 181.176 86.6807 181.282C84.9691 181.405 83.8995 182.757 84.0314 184.588ZM92.67 186.902L92.3166 181.995L93.4656 181.912L93.3975 180.966L92.2485 181.049L92.1166 179.218L90.9916 179.299L91.1234 181.13L89.9744 181.213L90.0425 182.158L91.1915 182.076L91.5449 186.983L92.67 186.902Z" fill="#8F9BB7"/>
<defs>
<clipPath id="clip0_317_750">
<rect width="20" height="20" fill="white" transform="translate(59.2266 115.944) rotate(-11.3557)"/>
</clipPath>
</defs>
</svg>
