<svg width="342" height="231" viewBox="0 0 342 231" fill="none" xmlns="http://www.w3.org/2000/svg">
<rect y="0.779785" width="342" height="230" rx="4" fill="#060B27"/>
<rect x="37.2875" y="30.2821" width="137.883" height="164.719" rx="8.79119" transform="rotate(5.14985 37.2875 30.2821)" fill="#0E1330" stroke="#282D45" stroke-width="0.925389"/>
<path d="M141.796 107.204C140.18 113.64 137.082 119.609 132.75 124.635C128.417 129.66 122.969 133.603 116.841 136.149C110.714 138.695 104.076 139.773 97.4572 139.297C90.8388 138.821 84.4233 136.805 78.7228 133.408C73.0223 130.012 68.1947 125.331 64.6253 119.737C61.0559 114.143 58.8436 107.793 58.165 101.192C57.4864 94.5912 58.3603 87.9233 60.7169 81.7204C63.0735 75.5175 66.8476 69.9514 71.7379 65.4665L76.3007 70.4417C72.186 74.2154 69.0104 78.8987 67.0275 84.1179C65.0446 89.3371 64.3093 94.9476 64.8803 100.502C65.4513 106.055 67.3127 111.399 70.3161 116.106C73.3194 120.812 77.3814 124.751 82.1779 127.609C86.9744 130.466 92.3725 132.163 97.9413 132.564C103.51 132.964 109.095 132.057 114.251 129.915C119.407 127.773 123.991 124.455 127.637 120.227C131.282 115.998 133.889 110.976 135.249 105.561L141.796 107.204Z" fill="#32CAFD"/>
<path d="M71.6475 65.5496C76.4877 61.0848 82.2977 57.8038 88.6206 55.9647C94.9435 54.1255 101.607 53.7783 108.087 54.9504L106.885 61.5933C101.433 60.6071 95.8262 60.8992 90.506 62.4467C85.1859 63.9942 80.2973 66.7549 76.2247 70.5116L71.6475 65.5496Z" fill="#7214FF"/>
<path d="M107.438 54.8384C113.273 55.8008 118.843 57.9683 123.793 61.2026C128.743 64.4369 132.965 68.667 136.19 73.6234C139.415 78.5798 141.572 84.1537 142.523 89.9898C143.474 95.8259 143.199 101.796 141.716 107.52L135.181 105.826C136.429 101.01 136.661 95.9865 135.86 91.0759C135.06 86.1653 133.245 81.4754 130.532 77.305C127.818 73.1346 124.266 69.5753 120.1 66.854C115.935 64.1326 111.249 62.3089 106.34 61.499L107.438 54.8384Z" fill="#41E88D"/>
<path d="M82.9131 92.3316C83.2712 92.0963 83.4347 91.9872 83.4034 92.0042C84.4386 91.2947 85.2545 90.7092 85.8511 90.2476C86.4576 89.7869 86.9777 89.2936 87.4117 88.7678C87.8456 88.242 88.0864 87.7136 88.1343 87.1828C88.1706 86.7797 88.1056 86.4567 87.9392 86.2137C87.7727 85.9708 87.5028 85.8325 87.1292 85.7988C86.7556 85.7651 86.4478 85.8811 86.2058 86.1467C85.9746 86.4034 85.8359 86.7873 85.7899 87.2985L83.3567 87.0792C83.4517 86.2454 83.6915 85.5633 84.0763 85.0331C84.4709 84.5037 84.9554 84.1311 85.5298 83.9153C86.1141 83.7004 86.7454 83.6235 87.4238 83.6846C88.5937 83.7901 89.4465 84.1692 89.9823 84.8221C90.528 85.4758 90.7574 86.2844 90.6705 87.2478C90.5757 88.2997 90.1288 89.2456 89.3296 90.0853C88.5313 90.9153 87.5382 91.7078 86.3502 92.463L90.3317 92.8218L90.147 94.8716L82.7443 94.2044L82.9131 92.3316ZM97.2758 87.739C97.2299 87.3682 97.1166 87.0854 96.936 86.8908C96.7562 86.6863 96.4844 86.5676 96.1207 86.5348C95.5603 86.4843 95.1351 86.6938 94.845 87.1632C94.5558 87.6227 94.3589 88.378 94.2543 89.4291C94.5016 89.1045 94.8356 88.862 95.2564 88.7017C95.687 88.5423 96.1481 88.4848 96.6397 88.5291C97.6031 88.6159 98.3474 88.9902 98.8725 89.652C99.4074 90.3147 99.6257 91.1917 99.5273 92.2829C99.4626 93.0006 99.2585 93.6164 98.9148 94.1306C98.581 94.6456 98.1202 95.0302 97.5323 95.2845C96.9543 95.5396 96.2868 95.6331 95.5298 95.5649C94.0159 95.4284 93.0065 94.8617 92.5017 93.8648C91.9978 92.858 91.826 91.4649 91.9864 89.6855C92.1547 87.8176 92.5893 86.4594 93.2902 85.6108C94.0018 84.7532 95.0457 84.3864 96.4221 84.5105C97.1594 84.5769 97.7654 84.7802 98.2402 85.1203C98.7257 85.4515 99.075 85.8645 99.2881 86.3594C99.511 86.8553 99.6218 87.3856 99.6205 87.9504L97.2758 87.739ZM95.8556 90.4654C95.4329 90.4273 95.0675 90.5232 94.7593 90.7531C94.4619 90.974 94.2924 91.3156 94.2507 91.7776C94.2082 92.2495 94.3028 92.6297 94.5345 92.9182C94.776 93.2075 95.1376 93.3739 95.6193 93.4173C96.0519 93.4563 96.4026 93.3591 96.6714 93.1256C96.9509 92.8832 97.1111 92.5359 97.1518 92.0837C97.1935 91.6216 97.1033 91.2468 96.8815 90.9592C96.6596 90.6716 96.3177 90.507 95.8556 90.4654ZM100.865 94.0536L101.048 92.0186L106.309 85.7732L109.126 86.027L108.538 92.5449L109.747 92.6539L109.551 94.8364L108.341 94.7274L108.169 96.6445L105.647 96.4172L105.82 94.5002L100.865 94.0536ZM106.531 88.588L103.716 92.1104L106.194 92.3336L106.531 88.588ZM116.866 97.4283L113.797 92.5432L113.385 97.1146L110.864 96.8873L111.797 86.5353L114.318 86.7626L113.909 91.3045L117.769 87.0736L120.733 87.3407L116.265 92.052L119.948 97.706L116.866 97.4283Z" fill="#8F9BB7"/>
<path d="M89.981 104.797C89.8996 105.701 90.3902 106.339 91.4 106.681L92.4903 107.058C93.185 107.288 93.4819 107.705 93.4287 108.295C93.3606 109.051 92.7008 109.465 91.733 109.378C90.8298 109.297 90.2622 108.79 90.2876 108.096L89.6056 108.034C89.5914 109.12 90.3971 109.871 91.6782 109.986C93.0422 110.109 93.9927 109.461 94.0957 108.318C94.1762 107.424 93.6948 106.786 92.685 106.444L91.5763 106.065C90.9008 105.828 90.593 105.429 90.6454 104.848C90.7127 104.101 91.3641 103.677 92.295 103.761C93.1245 103.836 93.5932 104.305 93.5996 105.058L94.2725 105.119C94.2708 104.004 93.5472 103.27 92.3582 103.163C91.031 103.043 90.0806 103.691 89.981 104.797ZM96.2632 110.399C97.019 110.468 97.6572 110.191 97.9843 109.653L97.9967 110.444L98.5312 110.492L98.7912 107.608C98.8975 106.428 98.1883 105.844 97.156 105.751C96.0593 105.652 95.2696 106.166 95.1882 107.069L95.7689 107.121C95.8229 106.522 96.3152 106.214 97.0894 106.283C97.7438 106.342 98.2442 106.666 98.1653 107.542L98.152 107.689L96.6666 107.676C95.6176 107.665 94.9444 108.125 94.8705 108.945C94.7999 109.729 95.3139 110.314 96.2632 110.399ZM96.4572 109.897C95.8489 109.842 95.4683 109.529 95.5173 108.985C95.5622 108.487 95.9364 108.149 96.7817 108.151L98.1088 108.169L98.0872 108.408C98 109.376 97.3973 109.981 96.4572 109.897ZM100.471 110.667L101.076 103.948L100.441 103.891L99.835 110.61L100.471 110.667ZM103.684 111.068C104.735 111.163 105.472 110.718 105.796 109.8L105.188 109.745C104.969 110.32 104.471 110.591 103.743 110.525C102.784 110.439 102.269 109.761 102.321 108.669L105.87 108.989L105.898 108.675C106.012 107.413 105.269 106.482 104.061 106.373C102.789 106.258 101.837 107.139 101.711 108.53C101.585 109.931 102.376 110.95 103.684 111.068ZM104.012 106.917C104.851 106.992 105.352 107.614 105.275 108.471L102.381 108.21C102.571 107.344 103.173 106.841 104.012 106.917ZM106.428 109.94C106.353 110.77 106.932 111.361 107.936 111.451C108.95 111.543 109.679 111.079 109.752 110.277C109.81 109.632 109.492 109.241 108.735 108.978L107.988 108.715C107.51 108.551 107.292 108.29 107.323 107.949C107.366 107.47 107.74 107.234 108.367 107.291C108.966 107.345 109.298 107.681 109.27 108.199L109.888 108.255C109.935 107.423 109.373 106.852 108.433 106.767C107.474 106.681 106.775 107.119 106.704 107.903C106.65 108.511 106.991 108.951 107.748 109.214L108.495 109.476C109.009 109.653 109.174 109.881 109.141 110.25C109.098 110.729 108.666 110.988 107.974 110.925C107.348 110.869 106.99 110.511 107.036 109.995L106.428 109.94Z" fill="#8F9BB7"/>
<circle cx="51.0375" cy="150.916" r="3.23886" transform="rotate(5.14985 51.0375 150.916)" fill="#32CAFD" stroke="#282D45" stroke-width="0.925389"/>
<line x1="62.5997" y1="151.493" x2="140.94" y2="158.554" stroke="#282D45" stroke-width="4.62694" stroke-linecap="round"/>
<circle cx="49.7914" cy="164.741" r="3.23886" transform="rotate(5.14985 49.7914 164.741)" fill="#7214FF" stroke="#282D45" stroke-width="0.925389"/>
<line x1="61.3536" y1="165.318" x2="106.515" y2="169.388" stroke="#282D45" stroke-width="4.62694" stroke-linecap="round"/>
<circle cx="48.5458" cy="178.565" r="3.23886" transform="rotate(5.14985 48.5458 178.565)" fill="#41E88D" stroke="#282D45" stroke-width="0.925389"/>
<line x1="60.108" y1="179.143" x2="121.859" y2="184.708" stroke="#282D45" stroke-width="4.62694" stroke-linecap="round"/>
<circle cx="232" cy="45.7798" r="22" fill="#2D55FB"/>
<rect width="24" height="24" transform="translate(220 33.7798)" fill="#2D55FB"/>
<path d="M237.918 48.0998C237.659 48.3508 237.54 48.7138 237.599 49.0698L238.488 53.9898C238.563 54.4068 238.387 54.8288 238.038 55.0698C237.696 55.3198 237.241 55.3498 236.868 55.1498L232.439 52.8398C232.285 52.7578 232.114 52.7138 231.939 52.7088H231.668C231.574 52.7228 231.482 52.7528 231.398 52.7988L226.968 55.1198C226.749 55.2298 226.501 55.2688 226.258 55.2298C225.666 55.1178 225.271 54.5538 225.368 53.9588L226.258 49.0388C226.317 48.6798 226.198 48.3148 225.939 48.0598L222.328 44.5598C222.026 44.2668 221.921 43.8268 222.059 43.4298C222.193 43.0338 222.535 42.7448 222.948 42.6798L227.918 41.9588C228.296 41.9198 228.628 41.6898 228.798 41.3498L230.988 36.8598C231.04 36.7598 231.107 36.6678 231.188 36.5898L231.278 36.5198C231.325 36.4678 231.379 36.4248 231.439 36.3898L231.548 36.3498L231.718 36.2798H232.139C232.515 36.3188 232.846 36.5438 233.019 36.8798L235.238 41.3498C235.398 41.6768 235.709 41.9038 236.068 41.9588L241.038 42.6798C241.458 42.7398 241.809 43.0298 241.948 43.4298C242.079 43.8308 241.966 44.2708 241.658 44.5598L237.918 48.0998Z" fill="black"/>
<rect x="210.535" y="98.5634" width="87" height="111" rx="5.5" transform="rotate(-4.11899 210.535 98.5634)" fill="#0E1330" stroke="#282D45"/>
<circle cx="256.328" cy="128.852" r="19" transform="rotate(-4.11899 256.328 128.852)" fill="#DF2DB1"/>
<path d="M256 120.447C260.608 120.447 264.333 124.18 264.333 128.78C264.333 133.388 260.608 137.113 256 137.113C251.4 137.113 247.667 133.388 247.667 128.78C247.667 124.18 251.4 120.447 256 120.447ZM255.708 124.555C255.367 124.555 255.083 124.83 255.083 125.18V129.388C255.083 129.605 255.2 129.805 255.392 129.922L258.658 131.872C258.758 131.93 258.867 131.963 258.983 131.963C259.192 131.963 259.4 131.855 259.517 131.655C259.692 131.363 259.6 130.98 259.3 130.797L256.333 129.03V125.18C256.333 124.83 256.05 124.555 255.708 124.555Z" fill="#060B27"/>
<path d="M245.62 172.615L245.382 169.311L252.167 157.946L256.74 157.617L257.502 168.198L259.464 168.056L259.72 171.599L257.757 171.741L257.981 174.853L253.887 175.147L253.663 172.035L245.62 172.615ZM253.258 162.392L249.674 168.762L253.695 168.472L253.258 162.392ZM273.251 159.773L265.783 160.311L266.021 163.614C266.314 163.24 266.741 162.921 267.299 162.656C267.857 162.391 268.472 162.234 269.142 162.186C270.339 162.1 271.348 162.3 272.169 162.786C273.006 163.271 273.639 163.932 274.068 164.767C274.497 165.602 274.748 166.523 274.82 167.528C274.955 169.395 274.535 170.917 273.561 172.094C272.586 173.255 271.141 173.905 269.226 174.043C267.949 174.135 266.825 173.999 265.852 173.636C264.878 173.257 264.108 172.695 263.541 171.95C262.974 171.205 262.63 170.323 262.508 169.305L266.506 169.017C266.637 169.505 266.899 169.903 267.29 170.212C267.68 170.505 268.194 170.628 268.832 170.582C269.582 170.528 270.124 170.249 270.456 169.743C270.789 169.238 270.926 168.587 270.869 167.789C270.813 167.007 270.578 166.422 270.165 166.035C269.752 165.647 269.179 165.48 268.445 165.533C267.902 165.572 267.465 165.74 267.133 166.036C266.801 166.317 266.594 166.677 266.513 167.116L262.564 167.4L261.814 156.987L272.993 156.182L273.251 159.773Z" fill="#8F9BB7"/>
<path d="M239.298 193.239L239.909 191.03L243.548 190.768L244.481 192.866L245.714 192.777L241.919 184.352L240.614 184.446L238.077 193.327L239.298 193.239ZM241.251 186.277C241.298 186.093 241.343 185.885 241.359 185.764C241.392 185.894 241.467 186.093 241.538 186.256L243.127 189.775L240.195 189.986L241.251 186.277ZM246.071 191.043C246.151 192.156 247.078 192.823 248.454 192.724C249.843 192.624 250.749 191.849 250.669 190.736C250.606 189.862 250.083 189.443 249.072 189.275L248.025 189.098C247.44 188.996 247.134 188.753 247.105 188.358C247.066 187.819 247.439 187.48 248.145 187.429C248.827 187.38 249.249 187.722 249.315 188.307L250.392 188.229C250.288 187.118 249.399 186.46 248.118 186.552C246.825 186.646 245.965 187.393 246.042 188.471C246.104 189.332 246.632 189.812 247.692 189.988L248.738 190.153C249.36 190.265 249.569 190.49 249.597 190.885C249.636 191.424 249.204 191.78 248.414 191.837C247.672 191.89 247.192 191.564 247.149 190.966L246.071 191.043ZM251.436 190.657C251.516 191.77 252.443 192.437 253.819 192.338C255.208 192.238 256.114 191.463 256.034 190.35C255.971 189.476 255.448 189.056 254.437 188.889L253.39 188.711C252.805 188.609 252.499 188.367 252.47 187.972C252.431 187.433 252.804 187.093 253.51 187.042C254.192 186.993 254.614 187.336 254.68 187.921L255.757 187.843C255.653 186.732 254.764 186.074 253.483 186.166C252.19 186.259 251.33 187.007 251.407 188.084C251.47 188.946 251.997 189.425 253.057 189.602L254.103 189.767C254.725 189.879 254.934 190.104 254.962 190.499C255.001 191.038 254.569 191.394 253.779 191.45C253.037 191.504 252.557 191.178 252.514 190.579L251.436 190.657ZM257.432 184.655C257.839 184.625 258.15 184.266 258.12 183.859C258.09 183.44 257.732 183.141 257.325 183.17C256.918 183.2 256.606 183.547 256.636 183.966C256.665 184.373 257.025 184.684 257.432 184.655ZM257.402 191.935L258.528 191.854L258.106 186.002L256.981 186.083L257.402 191.935ZM259.568 188.688C259.686 190.327 260.832 191.532 262.496 191.412C263.417 191.346 264.154 190.884 264.488 190.174L264.572 191.347C264.653 192.46 263.986 193.23 262.885 193.309C261.903 193.38 261.221 192.924 261.015 192.072L259.89 192.153C260.212 193.622 261.366 194.441 262.958 194.327C264.754 194.197 265.806 192.942 265.673 191.099L265.269 185.486L264.264 185.558L264.252 186.558C263.828 185.854 263.067 185.476 262.121 185.544C260.422 185.666 259.449 187.036 259.568 188.688ZM260.692 188.583C260.614 187.505 261.222 186.595 262.347 186.514C263.497 186.432 264.225 187.197 264.306 188.322C264.389 189.471 263.754 190.335 262.616 190.417C261.515 190.496 260.771 189.684 260.692 188.583ZM268.439 191.141L268.216 188.041C268.134 186.904 268.69 186.106 269.744 186.03C270.605 185.968 271.19 186.407 271.276 187.592L271.515 190.919L272.641 190.838L272.383 187.259C272.275 185.763 271.501 184.869 269.957 184.98C269.131 185.039 268.417 185.488 268.095 186.185L267.91 185.296L266.893 185.369L267.314 191.222L268.439 191.141ZM276.735 190.688C278.183 190.583 279.113 189.807 279.31 188.529L278.257 188.605C278.114 189.289 277.565 189.689 276.691 189.752C275.578 189.833 274.883 189.197 274.71 187.97L279.234 187.632L279.203 187.213C279.078 185.478 277.907 184.407 276.243 184.527C274.543 184.649 273.474 186.002 273.605 187.833C273.737 189.652 275.011 190.812 276.735 190.688ZM276.311 185.473C277.304 185.401 277.985 186.002 278.055 186.971L274.68 187.214C274.749 186.175 275.329 185.543 276.311 185.473ZM283.042 190.233C283.976 190.166 284.736 189.702 285.062 188.873L285.234 189.931L286.24 189.859L285.605 181.05L284.492 181.13L284.773 185.032C284.326 184.342 283.544 184.001 282.646 184.066C280.911 184.191 279.964 185.583 280.093 187.378C280.222 189.161 281.343 190.356 283.042 190.233ZM283.196 189.2C282.047 189.282 281.315 188.469 281.228 187.26C281.142 186.063 281.75 185.153 282.899 185.07C284.048 184.988 284.816 185.799 284.902 186.995C284.99 188.216 284.345 189.117 283.196 189.2Z" fill="#8F9BB7"/>
</svg>
