<svg xmlns="http://www.w3.org/2000/svg" width="49.944" height="49.917" viewBox="0 0 49.944 49.917">
  <g id="Supplier_Analysis" data-name="Supplier Analysis" transform="translate(-7.056 -7.067)">
    <g id="Group_1" data-name="Group 1">
      <path id="Path_8" data-name="Path 8" d="M44.515,42.687a1,1,0,0,1-.707-.293l-3.029-3.029a1,1,0,0,1,1.414-1.414l3.029,3.029a1,1,0,0,1-.707,1.707Z" fill="#74bc21"/>
    </g>
    <g id="Group_2" data-name="Group 2">
      <path id="Path_9" data-name="Path 9" d="M41.687,45.515a1,1,0,0,1-.707-.293l-3.029-3.029a1,1,0,0,1,1.414-1.414l3.029,3.029a1,1,0,0,1-.707,1.707Z" fill="#74bc21"/>
    </g>
    <g id="Group_3" data-name="Group 3">
      <path id="Path_10" data-name="Path 10" d="M26.078,40.987h0a15.162,15.162,0,0,1-12.05-5.949,14.786,14.786,0,0,1-2.281-13.4,14.8,14.8,0,0,1,9.4-9.835,14.589,14.589,0,0,1,4.725-.788A15.256,15.256,0,0,1,41,26,15.192,15.192,0,0,1,30.849,40.2a14.738,14.738,0,0,1-4.771.788Zm-.2-27.973a12.616,12.616,0,0,0-4.079.68,12.824,12.824,0,0,0-8.139,8.528,12.807,12.807,0,0,0,1.964,11.61,13.15,13.15,0,0,0,10.454,5.155h0a12.735,12.735,0,0,0,4.125-.681A13.167,13.167,0,0,0,39,26,13.23,13.23,0,0,0,25.876,13.014Z" fill="#74bc21"/>
    </g>
    <g id="Group_4" data-name="Group 4">
      <path id="Path_11" data-name="Path 11" d="M13.19,55.137a5,5,0,0,1,0-10,5,5,0,0,1,0,10Zm0-8a3,3,0,1,0,3,3,3.04,3.04,0,0,0-3-3Z" fill="#74bc21"/>
    </g>
    <g id="Group_5" data-name="Group 5">
      <path id="Path_12" data-name="Path 12" d="M15.064,47.6a1,1,0,0,1-.883-1.469l2.5-4.7a1,1,0,1,1,1.767.937l-2.5,4.7A1,1,0,0,1,15.064,47.6Z" fill="#74bc21"/>
    </g>
    <g id="Group_6" data-name="Group 6">
      <path id="Path_13" data-name="Path 13" d="M12.91,14.64a1,1,0,0,1-.7-1.71,1.034,1.034,0,0,1,1.41,0,1,1,0,0,1-.71,1.71Z" fill="#74bc21"/>
    </g>
    <g id="Group_7" data-name="Group 7">
      <path id="Path_14" data-name="Path 14" d="M41.237,36.581a1,1,0,0,1-.845-1.532A17,17,0,0,0,16.517,11.891a1,1,0,1,1-1.116-1.66,19.225,19.225,0,0,1,25.1,3.483,19.169,19.169,0,0,1,1.586,22.4,1,1,0,0,1-.848.468Z" fill="#74bc21"/>
    </g>
    <g id="Group_8" data-name="Group 8">
      <path id="Path_15" data-name="Path 15" d="M52,56.984a4.963,4.963,0,0,1-3.536-1.449,1,1,0,1,1,1.415-1.415,3.109,3.109,0,0,0,4.241,0,3.037,3.037,0,0,0,0-4.242,1,1,0,1,1,1.415-1.415A4.985,4.985,0,0,1,52,56.984Z" fill="#74bc21"/>
    </g>
    <g id="Group_9" data-name="Group 9">
      <path id="Path_16" data-name="Path 16" d="M45.93,52.59a1.007,1.007,0,0,1-1-1,1.014,1.014,0,0,1,.29-.71,1,1,0,0,1,1.71.71,1.027,1.027,0,0,1-.29.7A1.017,1.017,0,0,1,45.93,52.59Z" fill="#74bc21"/>
    </g>
    <g id="Group_10" data-name="Group 10">
      <path id="Path_17" data-name="Path 17" d="M49.172,55.828a1,1,0,0,1-.707-.292l-.415-.414a1,1,0,1,1,1.413-1.415l.415.414a1,1,0,0,1-.706,1.707Z" fill="#74bc21"/>
    </g>
    <g id="Group_11" data-name="Group 11">
      <path id="Path_18" data-name="Path 18" d="M41.687,48.343a1,1,0,0,1-.707-.293,3,3,0,0,1,0-4.243,1,1,0,0,1,1.414,1.414,1,1,0,0,0,0,1.415,1,1,0,0,1-.707,1.707Z" fill="#74bc21"/>
    </g>
    <g id="Group_12" data-name="Group 12">
      <path id="Path_19" data-name="Path 19" d="M43.1,49.757a1,1,0,0,1-.707-.293L40.98,48.05a1,1,0,0,1,1.414-1.414l1.414,1.414a1,1,0,0,1-.707,1.707Z" fill="#74bc21"/>
    </g>
    <g id="Group_13" data-name="Group 13">
      <path id="Path_20" data-name="Path 20" d="M47.343,42.687a1,1,0,0,1-.707-.293,1.026,1.026,0,0,0-1.415,0,1,1,0,0,1-1.414-1.414,3,3,0,0,1,4.243,0,1,1,0,0,1-.707,1.707Z" fill="#74bc21"/>
    </g>
    <g id="Group_14" data-name="Group 14">
      <path id="Path_21" data-name="Path 21" d="M54.828,50.172a1,1,0,0,1-.707-.293l-7.485-7.485A1,1,0,0,1,48.05,40.98l7.485,7.485a1,1,0,0,1-.707,1.707Z" fill="#74bc21"/>
    </g>
    <g id="Group_15" data-name="Group 15">
      <path id="Path_22" data-name="Path 22" d="M41.687,45.515a1,1,0,0,1-.707-1.707l2.828-2.828a1,1,0,0,1,1.414,1.414l-2.828,2.828A1,1,0,0,1,41.687,45.515Z" fill="#74bc21"/>
    </g>
    <g id="Group_16" data-name="Group 16">
      <path id="Path_23" data-name="Path 23" d="M41.478,36.821a1,1,0,0,1-.708-.293l-.239-.24a1,1,0,1,1,1.416-1.414l.239.24a1,1,0,0,1-.708,1.707Z" fill="#74bc21"/>
    </g>
    <g id="Group_17" data-name="Group 17">
      <path id="Path_24" data-name="Path 24" d="M41.625,39.483a1,1,0,0,1-.781-1.624,1,1,0,0,0-.074-1.332,1,1,0,0,1,1.414-1.414,3,3,0,0,1,.223,3.994,1,1,0,0,1-.782.376Z" fill="#74bc21"/>
    </g>
    <g id="Group_18" data-name="Group 18">
      <path id="Path_25" data-name="Path 25" d="M38.484,42.626a1,1,0,0,1-.625-1.781,19.065,19.065,0,0,0,2.985-2.985,1,1,0,0,1,1.562,1.248,21.018,21.018,0,0,1-3.3,3.3.989.989,0,0,1-.622.218Z" fill="#74bc21"/>
    </g>
    <g id="Group_19" data-name="Group 19">
      <path id="Path_26" data-name="Path 26" d="M35.821,42.478a1,1,0,0,1-.707-.292l-.24-.239a1,1,0,1,1,1.414-1.416l.24.239a1,1,0,0,1-.707,1.708Z" fill="#74bc21"/>
    </g>
    <g id="Group_20" data-name="Group 20">
      <path id="Path_27" data-name="Path 27" d="M37.235,43.064a3,3,0,0,1-2.122-.88,1,1,0,0,1,1.414-1.414,1,1,0,0,0,1.332.074,1,1,0,1,1,1.248,1.562,2.984,2.984,0,0,1-1.872.658Z" fill="#74bc21"/>
    </g>
    <g id="Group_21" data-name="Group 21">
      <path id="Path_28" data-name="Path 28" d="M19.436,39.366a1,1,0,0,1-.883-1.469l4.688-8.833A1,1,0,1,1,25.008,30L20.32,38.834a1,1,0,0,1-.884.532Z" fill="#74bc21"/>
    </g>
    <g id="Group_22" data-name="Group 22">
      <path id="Path_29" data-name="Path 29" d="M26,31a5,5,0,1,1,5-5A5.067,5.067,0,0,1,26,31Zm0-8a3,3,0,1,0,3,3A3.04,3.04,0,0,0,26,23Z" fill="#74bc21"/>
    </g>
    <g id="Group_23" data-name="Group 23">
      <path id="Path_30" data-name="Path 30" d="M52,24.828a5,5,0,1,1,5-5A5.067,5.067,0,0,1,52,24.828Zm0-8a3,3,0,1,0,3,3A3.04,3.04,0,0,0,52,16.828Z" fill="#74bc21"/>
    </g>
    <g id="Group_24" data-name="Group 24">
      <path id="Path_31" data-name="Path 31" d="M29.891,26.076a1,1,0,0,1-.23-1.973l9.73-2.31a1,1,0,0,1,.462,1.946l-9.73,2.31a1.034,1.034,0,0,1-.232.027Z" fill="#74bc21"/>
    </g>
    <g id="Group_25" data-name="Group 25">
      <path id="Path_32" data-name="Path 32" d="M26.038,44.979a19.037,19.037,0,0,1-14.576-6.738,19.271,19.271,0,0,1-1.811-21.92,1,1,0,1,1,1.721,1.019,17.239,17.239,0,0,0,1.62,19.613,17.29,17.29,0,0,0,22.057,3.439,1,1,0,0,1,1.065,1.693,18.9,18.9,0,0,1-10.076,2.894Z" fill="#74bc21"/>
    </g>
    <g id="Group_26" data-name="Group 26">
      <path id="Path_33" data-name="Path 33" d="M43.512,22.843a1,1,0,0,1-.23-1.973l4.6-1.091a1,1,0,0,1,.462,1.946l-4.6,1.091a1.02,1.02,0,0,1-.232.027Z" fill="#74bc21"/>
    </g>
  </g>
</svg>
