<svg xmlns="http://www.w3.org/2000/svg" width="59.775" height="49.501" viewBox="0 0 59.775 49.501">
  <g id="Simplified_Procurement_Cycle" data-name="Simplified Procurement Cycle" transform="translate(0 -44.002)">
    <g id="Group_27" data-name="Group 27" transform="translate(0 44.002)">
      <path id="Path_34" data-name="Path 34" d="M204.718,184.487a.876.876,0,0,0,1.7-.417l-2.547-10.392a.876.876,0,1,0-1.7.417Z" transform="translate(-178.546 -157.949)" fill="#74bc21"/>
      <path id="Path_35" data-name="Path 35" d="M278.289,185.155a.876.876,0,0,0,.874-.947l-.849-10.392a.876.876,0,0,0-1.745.143l.849,10.392A.876.876,0,0,0,278.289,185.155Z" transform="translate(-244.277 -157.95)" fill="#74bc21"/>
      <path id="Path_36" data-name="Path 36" d="M345.461,184.35l.849-10.392a.876.876,0,1,0-1.745-.142l-.849,10.392a.876.876,0,1,0,1.745.142Z" transform="translate(-303.585 -157.949)" fill="#74bc21"/>
      <path id="Path_37" data-name="Path 37" d="M405.312,184.486l2.547-10.392a.876.876,0,1,0-1.7-.417l-2.547,10.392a.876.876,0,1,0,1.7.417Z" transform="translate(-356.468 -157.948)" fill="#74bc21"/>
      <path id="Path_38" data-name="Path 38" d="M251.166,125.075H220.549a.876.876,0,0,0,0,1.751h30.617a.884.884,0,0,1,.856,1.1l-3.288,12.886a.876.876,0,1,0,1.7.433l3.288-12.886A2.635,2.635,0,0,0,251.166,125.075Z" transform="translate(-194.027 -115.61)" fill="#74bc21"/>
      <path id="Path_39" data-name="Path 39" d="M55.311,81.982H19.866a1.831,1.831,0,1,1,0-3.661H51.461a3.51,3.51,0,0,0,3.4-2.644l.528-2.068a.876.876,0,0,0-1.7-.433l-.528,2.068a1.76,1.76,0,0,1-1.706,1.325H23.73a1.76,1.76,0,0,1-1.705-1.322L16.873,55.218h5.554a.876.876,0,0,0,0-1.751H19.622l-1.588-6.112A3.529,3.529,0,0,0,14.615,44.7H10.963A2.119,2.119,0,0,0,9.388,44H2.126A2.129,2.129,0,0,0,0,46.128v1.987a2.129,2.129,0,0,0,2.126,2.126H9.388a2.119,2.119,0,0,0,1.574-.7H13.6l6.16,23.95a6.663,6.663,0,0,0-.031,13.324,4.356,4.356,0,1,0,7.351,0H45.795a4.356,4.356,0,1,0,7.353,0h2.163a2.417,2.417,0,0,0,0-4.835ZM2.126,48.49a.375.375,0,0,1-.375-.375V46.128a.375.375,0,0,1,.375-.375H9.388a.375.375,0,0,1,.375.375v1.987a.375.375,0,0,1-.375.375Zm9.388-.7V46.456h3.1a1.779,1.779,0,0,1,1.723,1.338l1.474,5.674h-1.39l-1.292-5.022a.876.876,0,0,0-.848-.658ZM23.407,91.752a2.6,2.6,0,1,1,2.6-2.6A2.607,2.607,0,0,1,23.407,91.752Zm26.064,0a2.6,2.6,0,1,1,2.6-2.6A2.607,2.607,0,0,1,49.471,91.752Zm5.84-6.687H50.989a4.351,4.351,0,0,0-3.036,0H24.925a4.351,4.351,0,0,0-3.036,0H19.866a4.914,4.914,0,1,1,0-9.828h.348a4.7,4.7,0,0,0,.479,1.332h-.827a3.582,3.582,0,1,0,0,7.164H55.311a.666.666,0,0,1,0,1.332Z" transform="translate(0 -44.002)" fill="#74bc21"/>
    </g>
  </g>
</svg>
