<svg xmlns="http://www.w3.org/2000/svg" xmlns:xlink="http://www.w3.org/1999/xlink" width="91" height="85" viewBox="0 0 91 85">
  <defs>
    <filter id="Rectangle_18" x="0" y="0" width="91" height="85" filterUnits="userSpaceOnUse">
      <feOffset input="SourceAlpha"/>
      <feGaussianBlur stdDeviation="6.5" result="blur"/>
      <feFlood flood-color="#3d7b95" flood-opacity="0.078"/>
      <feComposite operator="in" in2="blur"/>
      <feComposite in="SourceGraphic"/>
    </filter>
  </defs>
  <g id="Group_28" data-name="Group 28" transform="translate(-549.5 -26.5)">
    <g transform="matrix(1, 0, 0, 1, 549.5, 26.5)" filter="url(#Rectangle_18)">
      <rect id="Rectangle_18-2" data-name="Rectangle 18" width="52" height="46" rx="5" transform="translate(19.5 19.5)" fill="#74bc21"/>
    </g>
    <path id="Shape_1" data-name="Shape 1" d="M606.148,75.187,604.2,73.239a.818.818,0,1,0-1.155,1.158l1.944,1.947a1.185,1.185,0,0,1-1.677,1.675l-3.724-3.731,2.247-2.251a.818.818,0,0,0-1.155-1.158l-.838.839-1.178-1.18a7.721,7.721,0,0,0-.548-10.283,7.678,7.678,0,0,0-10.874,0,7.724,7.724,0,0,0,0,10.891,7.68,7.68,0,0,0,10.267.549l1.178,1.18-.838.841a.812.812,0,0,0,0,1.152l4.3,4.313a2.89,2.89,0,0,0,2,.817,2.82,2.82,0,0,0,1.989-4.813Zm-9.17-5.2a6.051,6.051,0,0,1-8.563,0,6.083,6.083,0,0,1,0-8.58,6.053,6.053,0,0,1,8.563,0A6.083,6.083,0,0,1,596.977,69.985Z" fill="#fff"/>
  </g>
</svg>
