<svg xmlns="http://www.w3.org/2000/svg" width="37.411" height="37.358" viewBox="0 0 37.411 37.358">
  <path id="telephone" d="M1167.557,3705.659a17.052,17.052,0,0,1-4.122-5.021l0-.008a31.985,31.985,0,0,1-4.1-13.205,29.378,29.378,0,0,1,.768-10.338,12.4,12.4,0,0,1,2.349-4.87,5.529,5.529,0,0,1,3.377-1.917l3.344-.6.031-.006a3.652,3.652,0,0,1,4.388,2.976c.069.3.124.6.178.9s.1.6.152.89.1.592.152.89l.466,2.6a3.6,3.6,0,0,1-3.157,4.421c-.291.052-.549.106-.786.149-.489.095-.933.175-1.48.258a13.664,13.664,0,0,0-.1,3.033,24.126,24.126,0,0,0,.945,5.313,1.366,1.366,0,0,1-.943,1.7,1.384,1.384,0,0,1-1.734-.907,27.207,27.207,0,0,1-1.052-5.911l0-.015a15.016,15.016,0,0,1,.277-4.353.459.459,0,0,1,.022-.1,1.859,1.859,0,0,1,1.568-1.392l.076-.014c.78-.1,1.284-.192,1.927-.314.244-.051.5-.1.809-.153.788-.141,1.021-.468.883-1.237l-.466-2.6c-.056-.313-.1-.622-.157-.92-.1-.592-.189-1.146-.312-1.7,0-.015-.006-.03-.007-.045-.074-.411-.279-.944-1.2-.8l-3.33.6a2.81,2.81,0,0,0-1.72.979,9.468,9.468,0,0,0-1.79,3.806,26.872,26.872,0,0,0-.68,9.413,29.228,29.228,0,0,0,3.756,12.1,14.422,14.422,0,0,0,3.429,4.235,3.044,3.044,0,0,0,2.672.678,21.817,21.817,0,0,1,2.28-.456c.291-.052.575-.095.851-.145.761-.159,1.028-.523.9-1.24l-.945-5.274c0-.008,0-.022-.006-.03a1.013,1.013,0,0,0-.344-.678,1.206,1.206,0,0,0-.837-.1l-2.839.509a1.366,1.366,0,1,1-.483-2.689l2.839-.51a3.876,3.876,0,0,1,2.951.558,3.584,3.584,0,0,1,1.476,2.458l.942,5.251a3.672,3.672,0,0,1-3.127,4.417l-.023,0c-.314.056-.62.111-.919.156a20.472,20.472,0,0,0-2.022.4.239.239,0,0,1-.066.02,6.191,6.191,0,0,1-1.343.151A5.97,5.97,0,0,1,1167.557,3705.659Zm13.268-9.966-.4-2.219a1.4,1.4,0,0,1,2.755-.494l.4,2.219a1.382,1.382,0,0,1-1.135,1.592,1.43,1.43,0,0,1-.252.022A1.381,1.381,0,0,1,1180.825,3695.693Zm4.8-.862-.4-2.219a1.4,1.4,0,0,1,2.754-.493l.4,2.218a1.38,1.38,0,0,1-1.135,1.591,1.424,1.424,0,0,1-.253.023A1.381,1.381,0,0,1,1185.63,3694.832Zm4.8-.861-.4-2.218a1.4,1.4,0,0,1,2.754-.494l.4,2.218a1.382,1.382,0,0,1-1.135,1.592,1.431,1.431,0,0,1-.252.022A1.381,1.381,0,0,1,1190.43,3693.971Zm-11.006-6.092-.4-2.218a1.4,1.4,0,0,1,2.755-.494l.4,2.219a1.381,1.381,0,0,1-1.136,1.591,1.428,1.428,0,0,1-.252.022A1.381,1.381,0,0,1,1179.424,3687.879Zm4.806-.862-.4-2.218a1.4,1.4,0,0,1,2.755-.494l.4,2.219a1.381,1.381,0,0,1-1.134,1.591,1.434,1.434,0,0,1-.252.022A1.38,1.38,0,0,1,1184.23,3687.017Zm4.8-.86-.4-2.219a1.4,1.4,0,0,1,2.754-.494l.4,2.219a1.381,1.381,0,0,1-1.135,1.591,1.436,1.436,0,0,1-.252.022A1.38,1.38,0,0,1,1189.029,3686.158Zm4.8-.861-.4-2.218a1.4,1.4,0,0,1,2.755-.494l.4,2.218a1.382,1.382,0,0,1-1.136,1.592,1.428,1.428,0,0,1-.252.022A1.38,1.38,0,0,1,1193.827,3685.3Zm-15.8-5.224-.4-2.219a1.4,1.4,0,0,1,2.755-.494l.4,2.219a1.387,1.387,0,0,1-1.135,1.592,1.44,1.44,0,0,1-.251.022A1.382,1.382,0,0,1,1178.025,3680.073Zm4.805-.862-.4-2.219a1.4,1.4,0,0,1,2.754-.494l.4,2.219a1.386,1.386,0,0,1-1.135,1.591,1.423,1.423,0,0,1-.253.023A1.379,1.379,0,0,1,1182.83,3679.211Zm4.8-.861-.4-2.219a1.4,1.4,0,0,1,2.754-.493l.4,2.218a1.388,1.388,0,0,1-1.135,1.592,1.432,1.432,0,0,1-.252.022A1.38,1.38,0,0,1,1187.629,3678.351Z" transform="translate(-1159.191 -3669.638)" fill="#fff"/>
</svg>
