<svg xmlns="http://www.w3.org/2000/svg" width="48" height="48" viewBox="0 0 48 48">
  <g id="_06-cart" data-name="06-cart" transform="translate(-6 -6)">
    <g id="linear_color" data-name="linear color" transform="translate(6 6)">
      <path id="Path_4" data-name="Path 4" d="M51.5,6H8.5A2.5,2.5,0,0,0,6,8.5V42.288a2.5,2.5,0,0,0,2.5,2.5h16.96L24.8,50.009a22.9,22.9,0,0,0-4.552,2.232A.96.96,0,0,0,20.784,54H39.216a.96.96,0,0,0,.533-1.759A22.9,22.9,0,0,0,35.2,50.009l-.653-5.225H51.5a2.5,2.5,0,0,0,2.5-2.5V8.5A2.5,2.5,0,0,0,51.5,6ZM8.5,7.92H51.5a.577.577,0,0,1,.576.576V35.184H7.92V8.5A.577.577,0,0,1,8.5,7.92Zm16.9,44.16h-.626A14.452,14.452,0,0,1,30,50.928a14.453,14.453,0,0,1,5.228,1.152Zm7.8-2.673a12.914,12.914,0,0,0-6.373,0l.578-4.623h5.217ZM52.08,42.288a.577.577,0,0,1-.576.576H8.5a.577.577,0,0,1-.576-.576V37.1H52.08Z" transform="translate(-6 -6)" fill="#74bc21"/>
      <path id="Path_5" data-name="Path 5" d="M230.96,351.92h3.072a.96.96,0,1,0,0-1.92H230.96a.96.96,0,1,0,0,1.92Z" transform="translate(-208.496 -316.976)" fill="#74bc21"/>
      <path id="Path_6" data-name="Path 6" d="M94.96,55.92h2.38l4.389,13.168a.957.957,0,0,0,.143.272h0a2.5,2.5,0,1,0,1.328.384h8.012c-.018.19-.028.382-.028.576a6.048,6.048,0,1,0,6.048-6.048c-.191,0-.379.01-.565.027l1.476-4.428a.96.96,0,0,0-.911-1.264H104.944a.96.96,0,0,0,0,1.92H115.9L115,63.22c-.025,0-.049,0-.075,0H106.48a.96.96,0,0,0,0,1.92h7.641a6.087,6.087,0,0,0-2.4,2.688h-8.393L98.943,54.656A.96.96,0,0,0,98.032,54H94.96a.96.96,0,0,0,0,1.92Zm6.912,16.512a.576.576,0,1,1,.576-.576A.576.576,0,0,1,101.872,72.432ZM121.36,70.32a4.128,4.128,0,1,1-4.128-4.128A4.128,4.128,0,0,1,121.36,70.32Z" transform="translate(-85.552 -49.392)" fill="#74bc21"/>
      <path id="Path_7" data-name="Path 7" d="M310.536,201.351l1.536.768a.96.96,0,0,0,1.228-.326l1.536-2.3a.96.96,0,1,0-1.6-1.065l-1.066,1.6-.778-.389a.96.96,0,1,0-.859,1.717Z" transform="translate(-280.821 -179.564)" fill="#74bc21"/>
    </g>
  </g>
</svg>
